<?xml version="1.0" encoding="utf-8"?>
<!-- Generator: Adobe Illustrator 22.1.0, SVG Export Plug-In . SVG Version: 6.00 Build 0)  -->
<svg version="1.1" id="Ebene_1" xmlns="http://www.w3.org/2000/svg" xmlns:xlink="http://www.w3.org/1999/xlink" x="0px" y="0px"
	 viewBox="0 0 64 64" enable-background="new 0 0 64 64" xml:space="preserve">
<polygon fill="none" stroke="#222222" stroke-miterlimit="10" points="8,44 8,20 32,8 56,20 56,44 32,56 "/>
<line fill="none" stroke="#222222" stroke-miterlimit="10" x1="56" y1="20" x2="8" y2="44"/>
<line fill="none" stroke="#222222" stroke-miterlimit="10" x1="56" y1="44" x2="8" y2="20"/>
<polyline fill="none" stroke="#222222" stroke-miterlimit="10" points="32,56 48,32 32,8 "/>
<polyline fill="none" stroke="#222222" stroke-miterlimit="10" points="32,56 16,32 32,8 "/>
<line fill="none" stroke="#222222" stroke-miterlimit="10" x1="32" y1="32" x2="32" y2="56"/>
<polyline fill="none" stroke="#222222" stroke-miterlimit="10" points="24,52 16,56 8,52 8,44 "/>
<polyline fill="none" stroke="#222222" stroke-miterlimit="10" points="56,44 56,52 48,56 40,52 "/>
<line fill="none" stroke="#222222" stroke-miterlimit="10" x1="16" y1="56" x2="16" y2="48"/>
<line fill="none" stroke="#222222" stroke-miterlimit="10" x1="48" y1="56" x2="48" y2="48"/>
</svg>
