<?xml version="1.0" encoding="utf-8"?>
<!-- Generator: Adobe Illustrator 22.1.0, SVG Export Plug-In . SVG Version: 6.00 Build 0)  -->
<svg version="1.1" id="Ebene_1" xmlns="http://www.w3.org/2000/svg" xmlns:xlink="http://www.w3.org/1999/xlink" x="0px" y="0px"
	 viewBox="0 0 48 48" enable-background="new 0 0 48 48" xml:space="preserve">
<polygon fill="#00C853" points="24,48 8,24 24,0 40,24 "/>
<polygon opacity="0.5" points="30.4,28.8 32,36 40,24 "/>
<polygon opacity="0.2" points="8,24 16,36 17.6,28.8 "/>
<polygon opacity="0.3" points="24,32 17.6,28.8 16,36 24,48 32,36 30.4,28.8 "/>
<polygon opacity="0.2" points="24,32 30.4,28.8 28,18 24,16 20,18 17.6,28.8 "/>
<polygon opacity="0.4" points="28,18 30.4,28.8 40,24 "/>
<polygon opacity="0.1" points="20,18 8,24 17.6,28.8 "/>
<polygon opacity="0.1" points="24,16 28,18 24,0 20,18 "/>
<polygon opacity="0.3" points="40,24 24,0 28,18 "/>
</svg>
