<?xml version="1.0" encoding="utf-8"?>
<!-- Generator: Adobe Illustrator 21.1.0, SVG Export Plug-In . SVG Version: 6.00 Build 0)  -->
<svg version="1.1" xmlns="http://www.w3.org/2000/svg" xmlns:xlink="http://www.w3.org/1999/xlink" x="0px" y="0px"
	 viewBox="0 0 547 166" enable-background="new 0 0 547 166" xml:space="preserve">
<g id="Ebene_2">
</g>
<g id="Ebene_1">
	<g>
		<path fill="#00C853" d="M42.477,124.892c-0.604-0.604-0.907-1.31-0.907-2.116V44.285c0-0.886,0.281-1.633,0.847-2.237
			c0.563-0.605,1.289-0.907,2.177-0.907h57.084c0.886,0,1.633,0.302,2.237,0.907c0.605,0.604,0.907,1.351,0.907,2.237v11.973
			c0,0.888-0.302,1.614-0.907,2.177c-0.604,0.565-1.351,0.847-2.237,0.847H63.46v15.359h35.557c0.886,0,1.633,0.303,2.237,0.907
			c0.605,0.604,0.907,1.351,0.907,2.237v11.006c0,0.888-0.302,1.633-0.907,2.237c-0.604,0.604-1.351,0.907-2.237,0.907H63.46v15.722
			h39.185c0.886,0,1.632,0.302,2.237,0.907c0.604,0.604,0.907,1.351,0.907,2.237v11.973c0,0.888-0.303,1.614-0.907,2.177
			c-0.605,0.565-1.351,0.847-2.237,0.847H44.593C43.786,125.799,43.082,125.497,42.477,124.892z"/>
		<path fill="#00C853" d="M138.746,124.952c-0.604-0.563-0.907-1.289-0.907-2.177V60.854h-21.286c-0.888,0-1.633-0.282-2.238-0.847
			c-0.604-0.563-0.907-1.289-0.907-2.177V44.285c0-0.886,0.302-1.633,0.907-2.237c0.605-0.605,1.35-0.907,2.238-0.907h65.671
			c0.886,0,1.632,0.302,2.237,0.907c0.604,0.604,0.907,1.351,0.907,2.237V57.83c0,0.888-0.303,1.614-0.907,2.177
			c-0.605,0.565-1.351,0.847-2.237,0.847h-21.286v61.922c0,0.888-0.302,1.614-0.907,2.177c-0.604,0.565-1.351,0.847-2.237,0.847
			h-16.811C140.095,125.799,139.351,125.517,138.746,124.952z"/>
		<path fill="#00C853" d="M199.941,118.663c-6.572-5.563-10.059-13.706-10.461-24.43c-0.081-2.177-0.121-5.724-0.121-10.643
			c0-4.998,0.04-8.626,0.121-10.885c0.403-10.48,3.931-18.564,10.583-24.249s15.662-8.526,27.03-8.526
			c7.175,0,13.606,1.17,19.29,3.507c5.684,2.339,10.178,5.726,13.485,10.159c3.305,4.435,5.038,9.675,5.201,15.722
			c0,0.726-0.263,1.331-0.786,1.814c-0.525,0.484-1.149,0.726-1.875,0.726h-17.174c-1.13,0-1.956-0.221-2.479-0.666
			c-0.525-0.442-0.988-1.27-1.391-2.479c-1.13-3.95-2.842-6.712-5.14-8.285s-5.342-2.358-9.131-2.358
			c-9.112,0-13.829,5.08-14.15,15.239c-0.082,2.177-0.121,5.523-0.121,10.038c0,4.516,0.04,7.942,0.121,10.28
			c0.321,10.159,5.038,15.239,14.15,15.239c3.708,0,6.752-0.805,9.131-2.419c2.377-1.612,4.091-4.354,5.14-8.224
			c0.321-1.209,0.765-2.035,1.331-2.479c0.563-0.442,1.41-0.666,2.54-0.666h17.174c0.726,0,1.349,0.242,1.875,0.726
			c0.523,0.483,0.786,1.088,0.786,1.814c-0.163,6.047-1.896,11.289-5.201,15.722c-3.307,4.435-7.801,7.822-13.485,10.159
			s-12.115,3.507-19.29,3.507C215.562,127.008,206.512,124.227,199.941,118.663z"/>
		<path fill="#00C853" d="M275.891,124.892c-0.604-0.604-0.907-1.31-0.907-2.116V44.285c0-0.886,0.281-1.633,0.847-2.237
			c0.563-0.605,1.289-0.907,2.177-0.907h31.808c11.931,0,21.204,2.842,27.816,8.526c6.61,5.684,10.078,13.848,10.401,24.491
			c0.079,2.339,0.121,5.442,0.121,9.312s-0.042,6.935-0.121,9.191c-0.807,22.092-13.345,33.138-37.613,33.138h-32.412
			C277.201,125.799,276.496,125.497,275.891,124.892z M309.815,107.658c5.079,0,8.829-1.209,11.248-3.628
			c2.418-2.418,3.708-6.289,3.87-11.61c0.16-2.337,0.242-5.361,0.242-9.07c0-3.708-0.082-6.691-0.242-8.95
			c-0.163-5.159-1.554-8.969-4.173-11.429c-2.621-2.458-6.47-3.689-11.55-3.689h-11.489v48.376H309.815z"/>
		<path fill="#00C853" d="M358.009,124.892c-0.604-0.604-0.907-1.31-0.907-2.116V44.285c0-0.886,0.281-1.633,0.847-2.237
			c0.563-0.605,1.289-0.907,2.177-0.907h57.084c0.886,0,1.633,0.302,2.237,0.907c0.605,0.604,0.907,1.351,0.907,2.237v11.973
			c0,0.888-0.302,1.614-0.907,2.177c-0.604,0.565-1.351,0.847-2.237,0.847h-38.217v15.359h35.557c0.886,0,1.633,0.303,2.237,0.907
			c0.605,0.604,0.907,1.351,0.907,2.237v11.006c0,0.888-0.302,1.633-0.907,2.237c-0.604,0.604-1.351,0.907-2.237,0.907h-35.557
			v15.722h39.185c0.886,0,1.632,0.302,2.237,0.907c0.604,0.604,0.907,1.351,0.907,2.237v11.973c0,0.888-0.303,1.614-0.907,2.177
			c-0.605,0.565-1.351,0.847-2.237,0.847h-58.052C359.319,125.799,358.614,125.497,358.009,124.892z"/>
		<path fill="#00C853" d="M454.883,124.771c-0.847-0.684-1.433-1.552-1.754-2.601l-24.43-77.402l-0.242-1.089
			c0-0.644,0.261-1.228,0.786-1.753c0.523-0.523,1.149-0.786,1.875-0.786h15.843c1.209,0,2.196,0.344,2.963,1.028
			c0.765,0.686,1.27,1.433,1.512,2.238l16.448,54.665l16.569-54.665c0.242-0.886,0.745-1.652,1.512-2.298
			c0.766-0.645,1.754-0.968,2.963-0.968h15.843c0.726,0,1.33,0.263,1.814,0.786c0.484,0.525,0.726,1.109,0.726,1.753
			c0,0.405-0.042,0.768-0.121,1.089l-24.551,77.402c-0.242,1.049-0.786,1.917-1.633,2.601c-0.847,0.686-1.956,1.028-3.326,1.028
			h-19.472C456.837,125.799,455.73,125.457,454.883,124.771z"/>
	</g>
	<g>
	</g>
	<g>
	</g>
	<g>
	</g>
	<g>
	</g>
	<g>
	</g>
	<g>
	</g>
	<g>
	</g>
	<g>
	</g>
	<g>
	</g>
	<g>
	</g>
	<g>
	</g>
	<g>
	</g>
	<g>
	</g>
	<g>
	</g>
	<g>
	</g>
</g>
</svg>
