<?xml version="1.0" encoding="utf-8"?>
<!-- Generator: Adobe Illustrator 22.1.0, SVG Export Plug-In . SVG Version: 6.00 Build 0)  -->
<svg version="1.1" id="Ebene_1" xmlns="http://www.w3.org/2000/svg" xmlns:xlink="http://www.w3.org/1999/xlink" x="0px" y="0px"
	 viewBox="0 0 204 208" enable-background="new 0 0 204 208" xml:space="preserve">
<g>
	<g>
		<path fill="#00A041" d="M102,30.226c0,0,15.5,38.75,7.75,54.25s-23.25,15.5-23.25,15.5l15.5,23.25l31-46.5L102,30.226z"/>
		<path fill="#00C853" d="M109.75,84.476c7.75-15.5-7.75-54.25-7.75-54.25l-31,46.5l15.5,23.25
			C86.5,99.976,102,99.976,109.75,84.476z"/>
		
			<ellipse transform="matrix(0.9924 -0.1234 0.1234 0.9924 -8.571 11.7341)" fill="#F7F9F8" cx="90.417" cy="75.041" rx="9.579" ry="14.265"/>
		
			<ellipse transform="matrix(0.9748 -0.223 0.223 0.9748 -14.9378 22.2779)" fill="#282727" cx="91.184" cy="77.288" rx="3.92" ry="5.383"/>
		<circle fill="#F7F9F8" cx="91.711" cy="78.582" r="1.142"/>
		
			<ellipse transform="matrix(0.0449 -0.999 0.999 0.0449 34.4819 184.3645)" fill="#F7F9F8" cx="113.661" cy="74.149" rx="14.265" ry="9.579"/>
		
			<ellipse transform="matrix(0.0553 -0.9985 0.9985 0.0553 30.0737 185.5736)" fill="#282727" cx="113.109" cy="76.893" rx="5.262" ry="3.985"/>
		<circle fill="#F7F9F8" cx="112.619" cy="78.218" r="1.095"/>
		<g>
			<path fill="#282727" d="M107.981,55.408c-0.241,0-0.483-0.09-0.672-0.271c-0.385-0.371-0.397-0.984-0.026-1.37
				c2.207-2.297,5.178-3.597,8.363-3.66c3.206-0.053,6.207,1.117,8.503,3.325c0.385,0.371,0.397,0.984,0.026,1.37
				c-0.371,0.385-0.984,0.398-1.37,0.026c-1.923-1.848-4.454-2.825-7.121-2.785c-2.668,0.053-5.156,1.143-7.005,3.067
				C108.489,55.309,108.235,55.408,107.981,55.408z"/>
		</g>
		<g>
			<path fill="#282727" d="M78.297,58.863c-0.168,0-0.339-0.044-0.495-0.136c-0.46-0.273-0.61-0.868-0.337-1.328
				c1.677-2.818,4.352-4.815,7.531-5.623c3.179-0.806,6.482-0.327,9.302,1.35c0.46,0.273,0.61,0.868,0.337,1.328
				c-0.275,0.459-0.868,0.61-1.328,0.337c-2.373-1.413-5.156-1.815-7.834-1.136c-2.677,0.679-4.93,2.361-6.342,4.736
				C78.95,58.694,78.627,58.863,78.297,58.863z"/>
		</g>
	</g>
	<g>
		<path fill="#282727" d="M46.11,156.225c0.235,0,0.438,0.086,0.61,0.257c0.172,0.172,0.257,0.375,0.257,0.61v3.407
			c0,0.236-0.085,0.439-0.257,0.61c-0.172,0.172-0.375,0.257-0.61,0.257H30.876c-0.235,0-0.439-0.085-0.61-0.257
			c-0.172-0.171-0.257-0.375-0.257-0.61v-20.761c0-0.235,0.085-0.438,0.257-0.61c0.171-0.171,0.375-0.257,0.61-0.257h14.977
			c0.235,0,0.438,0.086,0.61,0.257c0.171,0.172,0.257,0.375,0.257,0.61v3.407c0,0.236-0.086,0.439-0.257,0.61
			c-0.172,0.172-0.375,0.257-0.61,0.257h-9.898v3.471h9.191c0.235,0,0.438,0.086,0.61,0.257c0.171,0.171,0.257,0.375,0.257,0.61
			v3.407c0,0.236-0.086,0.439-0.257,0.61c-0.172,0.172-0.375,0.257-0.61,0.257h-9.191v3.599H46.11z"/>
		<path fill="#282727" d="M70.469,138.871c0.235,0,0.438,0.086,0.61,0.257c0.171,0.172,0.257,0.375,0.257,0.61v3.407
			c0,0.236-0.086,0.439-0.257,0.61c-0.172,0.172-0.375,0.257-0.61,0.257h-5.656v16.486c0,0.236-0.086,0.439-0.257,0.61
			c-0.172,0.172-0.376,0.257-0.611,0.257h-4.21c-0.235,0-0.439-0.085-0.61-0.257c-0.172-0.171-0.257-0.375-0.257-0.61v-16.486
			h-5.656c-0.236,0-0.439-0.085-0.61-0.257c-0.172-0.171-0.258-0.375-0.258-0.61v-3.407c0-0.235,0.086-0.438,0.258-0.61
			c0.171-0.171,0.374-0.257,0.61-0.257H70.469z"/>
		<path fill="#282727" d="M82.42,147.419c-0.021,0.278-0.038,0.664-0.049,1.157c-0.011,0.493-0.016,1.002-0.016,1.526
			c0,0.525,0.005,1.04,0.016,1.542c0.011,0.504,0.027,0.895,0.049,1.173c0.043,0.493,0.139,0.964,0.289,1.414
			c0.149,0.45,0.386,0.847,0.707,1.189c0.321,0.343,0.729,0.616,1.221,0.819c0.493,0.204,1.104,0.306,1.832,0.306
			s1.328-0.085,1.8-0.257c0.471-0.171,0.856-0.38,1.157-0.626c0.3-0.246,0.53-0.52,0.69-0.82c0.161-0.3,0.284-0.578,0.37-0.835
			c0.106-0.342,0.225-0.583,0.354-0.723c0.128-0.139,0.374-0.209,0.739-0.209h4.21c0.192,0,0.358,0.07,0.498,0.209
			c0.139,0.14,0.209,0.305,0.209,0.498c-0.021,1.093-0.29,2.121-0.804,3.085c-0.515,0.964-1.222,1.799-2.121,2.506
			s-1.955,1.27-3.165,1.688c-1.211,0.417-2.523,0.626-3.938,0.626c-1.542,0-2.919-0.23-4.129-0.691
			c-1.211-0.46-2.245-1.087-3.102-1.88c-0.857-0.792-1.516-1.719-1.977-2.78s-0.723-2.18-0.787-3.358
			c-0.043-0.878-0.064-1.821-0.064-2.828c0-1.007,0.021-1.971,0.064-2.893c0.043-1.178,0.3-2.297,0.771-3.358
			c0.471-1.061,1.13-1.987,1.976-2.78c0.847-0.792,1.881-1.419,3.102-1.88c1.222-0.46,2.604-0.691,4.146-0.691
			c1.414,0,2.727,0.209,3.938,0.627c1.21,0.417,2.266,0.98,3.165,1.687s1.606,1.542,2.121,2.507
			c0.514,0.964,0.782,1.992,0.804,3.085c0,0.193-0.07,0.359-0.209,0.498c-0.14,0.14-0.306,0.209-0.498,0.209h-4.21
			c-0.365,0-0.611-0.069-0.739-0.209c-0.129-0.139-0.247-0.38-0.354-0.723c-0.086-0.257-0.209-0.535-0.37-0.835
			c-0.16-0.3-0.391-0.573-0.69-0.819c-0.301-0.246-0.687-0.455-1.157-0.627c-0.472-0.171-1.071-0.257-1.8-0.257
			s-1.339,0.102-1.832,0.305c-0.492,0.204-0.899,0.477-1.221,0.819c-0.321,0.343-0.558,0.739-0.707,1.189
			C82.559,146.455,82.463,146.927,82.42,147.419z"/>
		<path fill="#282727" d="M113.854,138.871c1.479,0,2.828,0.22,4.049,0.659c1.222,0.439,2.276,1.055,3.166,1.848
			c0.889,0.793,1.585,1.741,2.089,2.844c0.503,1.104,0.787,2.309,0.852,3.615c0.021,0.45,0.032,0.863,0.032,1.237
			c0,0.375,0,0.734,0,1.077c0,0.343,0,0.696,0,1.061c0,0.365-0.012,0.761-0.032,1.189c-0.064,1.329-0.343,2.539-0.836,3.631
			c-0.493,1.093-1.173,2.036-2.04,2.828c-0.868,0.793-1.902,1.409-3.102,1.848c-1.2,0.439-2.539,0.659-4.018,0.659h-8.677
			c-0.236,0-0.439-0.085-0.61-0.257c-0.172-0.171-0.257-0.375-0.257-0.61v-20.761c0-0.235,0.085-0.438,0.257-0.61
			c0.171-0.171,0.374-0.257,0.61-0.257H113.854z M118.064,147.708c-0.129-2.463-1.586-3.696-4.371-3.696h-3.277v12.212h3.438
			c2.699,0,4.103-1.231,4.21-3.696c0.021-0.45,0.032-0.873,0.032-1.269s0-0.782,0-1.157c0-0.375,0-0.755,0-1.141
			S118.084,148.158,118.064,147.708z"/>
		<path fill="#282727" d="M146.772,156.225c0.235,0,0.438,0.086,0.61,0.257c0.171,0.172,0.257,0.375,0.257,0.61v3.407
			c0,0.236-0.086,0.439-0.257,0.61c-0.172,0.172-0.375,0.257-0.61,0.257h-15.233c-0.236,0-0.439-0.085-0.61-0.257
			c-0.172-0.171-0.257-0.375-0.257-0.61v-20.761c0-0.235,0.085-0.438,0.257-0.61c0.171-0.171,0.374-0.257,0.61-0.257h14.976
			c0.236,0,0.439,0.086,0.611,0.257c0.171,0.172,0.257,0.375,0.257,0.61v3.407c0,0.236-0.086,0.439-0.257,0.61
			c-0.172,0.172-0.375,0.257-0.611,0.257h-9.897v3.471h9.19c0.236,0,0.439,0.086,0.611,0.257c0.171,0.171,0.257,0.375,0.257,0.61
			v3.407c0,0.236-0.086,0.439-0.257,0.61c-0.172,0.172-0.375,0.257-0.611,0.257h-9.19v3.599H146.772z"/>
		<path fill="#282727" d="M161.393,161.367c-0.835,0-1.403-0.428-1.703-1.286l-6.556-20.085c-0.044-0.15-0.07-0.246-0.081-0.289
			s-0.016-0.085-0.016-0.129c0-0.193,0.069-0.358,0.209-0.498c0.139-0.139,0.306-0.209,0.498-0.209h4.049
			c0.429,0,0.734,0.092,0.916,0.273c0.182,0.182,0.295,0.359,0.338,0.53l4.467,14.14l4.467-14.14
			c0.043-0.171,0.155-0.348,0.338-0.53c0.182-0.182,0.487-0.273,0.916-0.273h4.049c0.193,0,0.358,0.07,0.498,0.209
			c0.14,0.14,0.209,0.305,0.209,0.498c0,0.043-0.005,0.086-0.016,0.129c-0.012,0.043-0.038,0.139-0.081,0.289l-6.556,20.085
			c-0.3,0.857-0.867,1.286-1.703,1.286H161.393z"/>
	</g>
	<g>
		<path fill="#B1BFB7" d="M34.315,176.971c0.073,0,0.136,0.027,0.19,0.08c0.053,0.053,0.08,0.117,0.08,0.19v0.36
			c0,0.074-0.026,0.137-0.08,0.19c-0.054,0.054-0.117,0.08-0.19,0.08H30.27c-0.073,0-0.137-0.026-0.19-0.08
			c-0.053-0.053-0.08-0.117-0.08-0.19v-6.468c0-0.073,0.026-0.136,0.08-0.19c0.053-0.053,0.117-0.08,0.19-0.08h3.965
			c0.073,0,0.137,0.026,0.19,0.08c0.053,0.054,0.08,0.117,0.08,0.19v0.361c0,0.074-0.027,0.137-0.08,0.19
			c-0.053,0.053-0.117,0.08-0.19,0.08h-3.284v2.112h3.064c0.073,0,0.136,0.027,0.19,0.08c0.053,0.053,0.08,0.117,0.08,0.19v0.36
			c0,0.074-0.027,0.137-0.08,0.19c-0.053,0.054-0.117,0.08-0.19,0.08h-3.064v2.193H34.315z"/>
		<path fill="#B1BFB7" d="M37.098,176.12c0,0.127,0.011,0.245,0.035,0.356c0.023,0.11,0.065,0.205,0.125,0.285
			c0.06,0.08,0.145,0.142,0.255,0.185c0.11,0.043,0.252,0.065,0.426,0.065h0.53c0.074,0,0.137,0.027,0.19,0.08
			c0.053,0.053,0.08,0.117,0.08,0.19v0.32c0,0.074-0.027,0.137-0.08,0.19c-0.053,0.054-0.117,0.08-0.19,0.08h-0.631
			c-0.581,0-1.001-0.15-1.261-0.451s-0.391-0.734-0.391-1.302v-2.593h-0.741c-0.073,0-0.137-0.026-0.19-0.08
			c-0.054-0.053-0.08-0.117-0.08-0.19v-0.32c0-0.073,0.026-0.137,0.08-0.19c0.053-0.053,0.117-0.08,0.19-0.08h0.741v-1.632
			c0-0.074,0.026-0.137,0.08-0.19c0.053-0.053,0.117-0.08,0.19-0.08h0.37c0.073,0,0.137,0.027,0.19,0.08
			c0.053,0.053,0.08,0.117,0.08,0.19v1.632h1.271c0.073,0,0.136,0.027,0.19,0.08c0.053,0.053,0.08,0.117,0.08,0.19v0.32
			c0,0.074-0.026,0.137-0.08,0.19c-0.054,0.054-0.117,0.08-0.19,0.08h-1.271V176.12z"/>
		<path fill="#B1BFB7" d="M44.366,177.602c0,0.074-0.026,0.137-0.08,0.19c-0.054,0.054-0.117,0.08-0.19,0.08h-0.371
			c-0.073,0-0.137-0.026-0.19-0.08c-0.054-0.053-0.08-0.117-0.08-0.19v-2.643c0-0.514-0.123-0.897-0.37-1.151
			c-0.247-0.253-0.591-0.38-1.032-0.38c-0.42,0-0.759,0.127-1.016,0.38c-0.257,0.254-0.385,0.638-0.385,1.151v2.643
			c0,0.074-0.027,0.137-0.08,0.19c-0.053,0.054-0.117,0.08-0.19,0.08h-0.37c-0.074,0-0.137-0.026-0.19-0.08
			c-0.054-0.053-0.08-0.117-0.08-0.19v-6.567c0-0.074,0.026-0.137,0.08-0.19c0.053-0.053,0.117-0.08,0.19-0.08h0.37
			c0.073,0,0.137,0.027,0.19,0.08c0.053,0.053,0.08,0.117,0.08,0.19v2.213c0.127-0.167,0.315-0.322,0.565-0.466
			c0.251-0.143,0.579-0.215,0.986-0.215c0.314,0,0.604,0.052,0.871,0.155c0.267,0.103,0.496,0.25,0.686,0.44
			c0.19,0.19,0.339,0.425,0.446,0.706c0.107,0.28,0.16,0.594,0.16,0.941V177.602z"/>
		<path fill="#B1BFB7" d="M45.578,174.768c0.027-0.307,0.1-0.594,0.22-0.861c0.12-0.267,0.277-0.501,0.471-0.701
			c0.194-0.2,0.426-0.357,0.696-0.471c0.271-0.114,0.572-0.17,0.906-0.17c0.361,0,0.682,0.058,0.966,0.175
			c0.284,0.117,0.526,0.285,0.726,0.506c0.2,0.22,0.354,0.487,0.46,0.801c0.107,0.314,0.16,0.664,0.16,1.051v0.27
			c0,0.073-0.026,0.137-0.08,0.19c-0.054,0.053-0.117,0.08-0.19,0.08h-3.444v0.06c0.013,0.454,0.152,0.803,0.416,1.046
			c0.264,0.244,0.592,0.365,0.986,0.365c0.367,0,0.642-0.051,0.826-0.155c0.183-0.103,0.332-0.218,0.445-0.345
			c0.053-0.053,0.1-0.09,0.14-0.11c0.04-0.02,0.1-0.03,0.18-0.03h0.3c0.073,0,0.14,0.027,0.2,0.08c0.06,0.053,0.083,0.117,0.07,0.19
			c-0.02,0.12-0.077,0.252-0.17,0.396c-0.094,0.143-0.229,0.277-0.405,0.4c-0.177,0.123-0.397,0.227-0.661,0.31
			c-0.264,0.083-0.572,0.125-0.926,0.125c-0.334,0-0.634-0.059-0.901-0.175c-0.267-0.117-0.499-0.277-0.696-0.481
			c-0.197-0.204-0.355-0.444-0.475-0.721s-0.194-0.579-0.22-0.906C45.545,175.383,45.545,175.076,45.578,174.768z M46.469,174.799
			h2.813v-0.03c0-0.407-0.128-0.732-0.385-0.976c-0.257-0.244-0.599-0.365-1.026-0.365c-0.194,0-0.374,0.032-0.541,0.095
			c-0.167,0.064-0.314,0.154-0.44,0.27c-0.127,0.117-0.227,0.259-0.3,0.426c-0.074,0.167-0.114,0.35-0.12,0.55V174.799z"/>
		<path fill="#B1BFB7" d="M54.038,172.666c0.073,0,0.137,0.027,0.19,0.08c0.053,0.053,0.08,0.117,0.08,0.19v0.32
			c0,0.074-0.027,0.137-0.08,0.19c-0.053,0.054-0.117,0.08-0.19,0.08h-0.581c-0.768,0-1.151,0.384-1.151,1.151v2.923
			c0,0.074-0.027,0.137-0.08,0.19c-0.053,0.054-0.117,0.08-0.19,0.08h-0.37c-0.074,0-0.137-0.026-0.19-0.08
			c-0.054-0.053-0.08-0.117-0.08-0.19v-4.665c0-0.073,0.026-0.137,0.08-0.19c0.053-0.053,0.117-0.08,0.19-0.08h0.37
			c0.073,0,0.137,0.027,0.19,0.08c0.053,0.053,0.08,0.117,0.08,0.19v0.31c0.133-0.2,0.293-0.347,0.48-0.44
			c0.187-0.094,0.431-0.141,0.731-0.141H54.038z"/>
		<path fill="#B1BFB7" d="M54.829,174.768c0.027-0.307,0.1-0.594,0.22-0.861c0.12-0.267,0.277-0.501,0.471-0.701
			c0.194-0.2,0.426-0.357,0.696-0.471c0.271-0.114,0.572-0.17,0.906-0.17c0.361,0,0.682,0.058,0.966,0.175
			c0.284,0.117,0.526,0.285,0.726,0.506c0.2,0.22,0.354,0.487,0.46,0.801c0.107,0.314,0.16,0.664,0.16,1.051v0.27
			c0,0.073-0.026,0.137-0.08,0.19c-0.054,0.053-0.117,0.08-0.19,0.08H55.72v0.06c0.013,0.454,0.152,0.803,0.416,1.046
			c0.264,0.244,0.592,0.365,0.986,0.365c0.367,0,0.642-0.051,0.826-0.155c0.183-0.103,0.332-0.218,0.445-0.345
			c0.053-0.053,0.1-0.09,0.14-0.11c0.04-0.02,0.1-0.03,0.18-0.03h0.3c0.073,0,0.14,0.027,0.2,0.08c0.06,0.053,0.083,0.117,0.07,0.19
			c-0.02,0.12-0.077,0.252-0.17,0.396c-0.094,0.143-0.229,0.277-0.405,0.4c-0.177,0.123-0.397,0.227-0.661,0.31
			c-0.264,0.083-0.572,0.125-0.926,0.125c-0.334,0-0.634-0.059-0.901-0.175c-0.267-0.117-0.499-0.277-0.696-0.481
			c-0.197-0.204-0.355-0.444-0.475-0.721s-0.194-0.579-0.22-0.906C54.796,175.383,54.796,175.076,54.829,174.768z M55.72,174.799
			h2.813v-0.03c0-0.407-0.128-0.732-0.385-0.976c-0.257-0.244-0.599-0.365-1.026-0.365c-0.194,0-0.374,0.032-0.541,0.095
			c-0.167,0.064-0.314,0.154-0.44,0.27c-0.127,0.117-0.227,0.259-0.3,0.426c-0.074,0.167-0.114,0.35-0.12,0.55V174.799z"/>
		<path fill="#B1BFB7" d="M60.596,172.936c0-0.073,0.027-0.137,0.08-0.19c0.053-0.053,0.117-0.08,0.19-0.08h0.37
			c0.073,0,0.137,0.027,0.19,0.08c0.053,0.053,0.08,0.117,0.08,0.19v2.643c0,0.514,0.115,0.898,0.345,1.151
			c0.23,0.254,0.565,0.38,1.006,0.38c0.421,0,0.751-0.127,0.992-0.38c0.24-0.253,0.36-0.637,0.36-1.151v-2.643
			c0-0.073,0.027-0.137,0.08-0.19c0.053-0.053,0.117-0.08,0.19-0.08h0.37c0.073,0,0.137,0.027,0.19,0.08
			c0.053,0.053,0.08,0.117,0.08,0.19v4.665c0,0.074-0.027,0.137-0.08,0.19c-0.053,0.054-0.117,0.08-0.19,0.08h-0.37
			c-0.074,0-0.137-0.026-0.19-0.08c-0.053-0.053-0.08-0.117-0.08-0.19v-0.31c-0.127,0.167-0.307,0.322-0.541,0.465
			c-0.234,0.144-0.554,0.215-0.961,0.215c-0.314,0-0.601-0.052-0.861-0.155c-0.26-0.103-0.484-0.251-0.671-0.441
			c-0.187-0.19-0.33-0.424-0.431-0.701c-0.1-0.277-0.15-0.592-0.15-0.946V172.936z"/>
		<path fill="#B1BFB7" d="M67.534,173.247c0.06-0.08,0.13-0.162,0.21-0.245c0.08-0.084,0.172-0.157,0.275-0.22
			c0.103-0.063,0.225-0.115,0.365-0.155c0.14-0.04,0.303-0.06,0.49-0.06c0.407,0,0.744,0.075,1.011,0.225
			c0.267,0.15,0.477,0.365,0.631,0.646c0.087-0.12,0.178-0.233,0.275-0.341c0.097-0.107,0.21-0.2,0.341-0.28
			c0.13-0.08,0.277-0.142,0.44-0.185c0.163-0.043,0.355-0.065,0.576-0.065c0.674,0,1.165,0.202,1.472,0.606
			c0.307,0.404,0.46,0.956,0.46,1.657v2.773c0,0.074-0.026,0.137-0.08,0.19c-0.054,0.054-0.117,0.08-0.19,0.08h-0.371
			c-0.073,0-0.137-0.026-0.19-0.08c-0.054-0.053-0.08-0.117-0.08-0.19v-2.673c0-0.514-0.1-0.893-0.3-1.137
			c-0.2-0.244-0.494-0.365-0.881-0.365c-0.354,0-0.639,0.117-0.856,0.35c-0.217,0.234-0.326,0.594-0.326,1.082v2.743
			c0,0.074-0.027,0.137-0.08,0.19c-0.053,0.054-0.117,0.08-0.19,0.08h-0.37c-0.073,0-0.137-0.026-0.19-0.08
			c-0.053-0.053-0.08-0.117-0.08-0.19v-2.673c0-0.514-0.1-0.893-0.301-1.137c-0.2-0.244-0.494-0.365-0.881-0.365
			c-0.354,0-0.639,0.117-0.856,0.35c-0.217,0.234-0.325,0.594-0.325,1.082v2.743c0,0.074-0.027,0.137-0.08,0.19
			c-0.053,0.054-0.117,0.08-0.19,0.08h-0.37c-0.074,0-0.137-0.026-0.19-0.08c-0.054-0.053-0.08-0.117-0.08-0.19v-4.665
			c0-0.073,0.026-0.137,0.08-0.19c0.053-0.053,0.117-0.08,0.19-0.08h0.37c0.073,0,0.137,0.027,0.19,0.08
			c0.053,0.053,0.08,0.117,0.08,0.19V173.247z"/>
		<path fill="#B1BFB7" d="M78.777,173.527c-0.013,0.3-0.02,0.581-0.02,0.841c0,0.26,0.007,0.541,0.02,0.841
			c0.02,0.554,0.189,1.003,0.506,1.346c0.317,0.344,0.773,0.516,1.367,0.516c0.32,0,0.591-0.04,0.811-0.12
			c0.22-0.08,0.402-0.183,0.545-0.31c0.143-0.127,0.254-0.272,0.33-0.435c0.077-0.163,0.135-0.329,0.175-0.495
			c0.013-0.074,0.047-0.129,0.1-0.165s0.107-0.055,0.16-0.055h0.461c0.06,0,0.112,0.022,0.155,0.065
			c0.043,0.043,0.065,0.095,0.065,0.155c-0.007,0.22-0.064,0.46-0.17,0.721c-0.107,0.26-0.272,0.506-0.495,0.736
			c-0.224,0.231-0.51,0.422-0.861,0.576c-0.35,0.153-0.776,0.23-1.276,0.23c-0.434,0-0.821-0.068-1.161-0.205
			c-0.34-0.137-0.632-0.326-0.876-0.566c-0.244-0.24-0.432-0.526-0.566-0.856c-0.134-0.33-0.207-0.692-0.22-1.086
			c-0.02-0.594-0.02-1.188,0-1.782c0.013-0.387,0.086-0.748,0.22-1.081s0.322-0.621,0.566-0.861c0.244-0.24,0.536-0.429,0.876-0.565
			c0.341-0.137,0.728-0.205,1.161-0.205c0.501,0,0.926,0.077,1.276,0.23c0.351,0.154,0.638,0.345,0.861,0.576
			c0.224,0.231,0.389,0.476,0.495,0.736s0.164,0.501,0.17,0.721c0,0.06-0.022,0.112-0.065,0.155
			c-0.044,0.044-0.095,0.065-0.155,0.065h-0.461c-0.053,0-0.107-0.018-0.16-0.055s-0.087-0.092-0.1-0.165
			c-0.04-0.167-0.099-0.332-0.175-0.495c-0.077-0.164-0.187-0.309-0.33-0.435c-0.143-0.127-0.326-0.231-0.545-0.31
			c-0.22-0.08-0.491-0.12-0.811-0.12c-0.594,0-1.05,0.172-1.367,0.516C78.965,172.525,78.797,172.973,78.777,173.527z"/>
		<path fill="#B1BFB7" d="M85.565,177.602c0,0.074-0.027,0.137-0.08,0.19c-0.053,0.054-0.117,0.08-0.19,0.08h-0.37
			c-0.074,0-0.137-0.026-0.19-0.08c-0.054-0.053-0.08-0.117-0.08-0.19v-6.567c0-0.074,0.026-0.137,0.08-0.19
			c0.053-0.053,0.117-0.08,0.19-0.08h0.37c0.073,0,0.137,0.027,0.19,0.08c0.053,0.053,0.08,0.117,0.08,0.19V177.602z"/>
		<path fill="#B1BFB7" d="M86.697,176.561c0-0.267,0.053-0.501,0.16-0.701c0.107-0.2,0.254-0.37,0.44-0.51
			c0.187-0.14,0.406-0.254,0.656-0.341c0.251-0.086,0.516-0.153,0.796-0.2l1.412-0.231v-0.13c0-0.341-0.112-0.596-0.335-0.766
			s-0.502-0.255-0.836-0.255c-0.294,0-0.516,0.054-0.666,0.16c-0.15,0.107-0.279,0.234-0.385,0.38c-0.04,0.054-0.084,0.09-0.13,0.11
			c-0.047,0.02-0.11,0.03-0.19,0.03h-0.3c-0.074,0-0.139-0.026-0.196-0.08c-0.057-0.053-0.081-0.117-0.075-0.19
			c0.013-0.147,0.072-0.297,0.175-0.451c0.103-0.154,0.244-0.29,0.42-0.411s0.381-0.218,0.611-0.295
			c0.231-0.077,0.476-0.115,0.736-0.115c0.3,0,0.579,0.043,0.836,0.13c0.257,0.087,0.477,0.214,0.661,0.38
			c0.183,0.167,0.327,0.374,0.431,0.621c0.103,0.247,0.155,0.53,0.155,0.851v3.053c0,0.074-0.027,0.137-0.08,0.19
			c-0.053,0.054-0.117,0.08-0.19,0.08h-0.37c-0.074,0-0.137-0.026-0.19-0.08c-0.054-0.053-0.08-0.117-0.08-0.19v-0.41
			c-0.06,0.127-0.154,0.239-0.28,0.335c-0.127,0.097-0.272,0.179-0.435,0.245c-0.164,0.067-0.334,0.117-0.51,0.15
			c-0.177,0.033-0.342,0.05-0.496,0.05c-0.26,0-0.499-0.037-0.716-0.11c-0.217-0.073-0.4-0.172-0.551-0.295
			c-0.15-0.123-0.267-0.272-0.35-0.445C86.738,176.948,86.697,176.761,86.697,176.561z M88.539,177.111
			c0.24,0,0.46-0.037,0.661-0.11c0.2-0.073,0.372-0.175,0.516-0.306c0.143-0.13,0.253-0.285,0.33-0.465
			c0.077-0.18,0.115-0.38,0.115-0.601v-0.25l-1.181,0.19c-0.42,0.066-0.754,0.174-1.001,0.32c-0.247,0.147-0.371,0.337-0.371,0.571
			c0,0.073,0.017,0.147,0.05,0.22c0.033,0.074,0.087,0.144,0.16,0.211c0.073,0.067,0.169,0.12,0.286,0.16
			C88.22,177.091,88.365,177.111,88.539,177.111z"/>
		<path fill="#B1BFB7" d="M95.497,176.431c0-0.127-0.035-0.232-0.105-0.315c-0.07-0.084-0.175-0.155-0.315-0.215
			c-0.141-0.06-0.319-0.117-0.536-0.17c-0.217-0.053-0.469-0.11-0.756-0.17c-0.541-0.113-0.919-0.302-1.136-0.566
			c-0.217-0.264-0.326-0.572-0.326-0.926c0-0.2,0.04-0.39,0.12-0.571c0.08-0.18,0.2-0.34,0.361-0.48
			c0.16-0.14,0.362-0.251,0.606-0.33c0.243-0.08,0.529-0.12,0.856-0.12c0.327,0,0.612,0.037,0.856,0.11
			c0.244,0.074,0.449,0.167,0.616,0.28c0.167,0.114,0.293,0.235,0.38,0.365c0.087,0.13,0.134,0.255,0.14,0.376
			c0.007,0.073-0.018,0.137-0.075,0.19c-0.057,0.053-0.122,0.08-0.195,0.08h-0.33c-0.04,0-0.088-0.008-0.145-0.025
			c-0.057-0.017-0.109-0.055-0.155-0.115c-0.087-0.113-0.216-0.209-0.386-0.285c-0.17-0.077-0.405-0.115-0.706-0.115
			c-0.307,0-0.556,0.057-0.746,0.17c-0.19,0.114-0.285,0.271-0.285,0.471c0,0.127,0.026,0.229,0.08,0.306
			c0.053,0.077,0.14,0.143,0.26,0.2c0.12,0.057,0.279,0.109,0.475,0.155c0.197,0.047,0.442,0.103,0.736,0.17
			c0.307,0.067,0.564,0.152,0.771,0.255c0.207,0.103,0.374,0.22,0.501,0.35c0.127,0.13,0.217,0.274,0.271,0.431
			c0.053,0.157,0.08,0.322,0.08,0.495c0,0.2-0.048,0.394-0.145,0.581c-0.097,0.187-0.235,0.351-0.416,0.491
			c-0.18,0.14-0.399,0.254-0.656,0.34c-0.257,0.087-0.549,0.13-0.876,0.13c-0.327,0-0.618-0.04-0.871-0.12
			c-0.254-0.08-0.471-0.178-0.651-0.295c-0.18-0.117-0.319-0.244-0.416-0.38c-0.097-0.137-0.149-0.265-0.155-0.385
			c-0.007-0.073,0.017-0.137,0.07-0.19c0.053-0.053,0.12-0.08,0.2-0.08h0.361c0.04,0,0.086,0.005,0.14,0.015
			c0.053,0.01,0.103,0.048,0.15,0.115c0.107,0.147,0.254,0.26,0.441,0.34c0.187,0.08,0.43,0.12,0.731,0.12
			c0.147,0,0.292-0.016,0.435-0.05c0.143-0.033,0.27-0.08,0.381-0.14c0.11-0.06,0.198-0.132,0.265-0.215
			S95.497,176.531,95.497,176.431z"/>
		<path fill="#B1BFB7" d="M100.563,176.431c0-0.127-0.035-0.232-0.105-0.315c-0.07-0.084-0.175-0.155-0.315-0.215
			c-0.141-0.06-0.319-0.117-0.536-0.17c-0.217-0.053-0.469-0.11-0.756-0.17c-0.541-0.113-0.919-0.302-1.136-0.566
			c-0.217-0.264-0.326-0.572-0.326-0.926c0-0.2,0.04-0.39,0.12-0.571c0.08-0.18,0.2-0.34,0.361-0.48
			c0.16-0.14,0.362-0.251,0.606-0.33c0.243-0.08,0.529-0.12,0.856-0.12c0.327,0,0.612,0.037,0.856,0.11
			c0.244,0.074,0.449,0.167,0.616,0.28c0.167,0.114,0.293,0.235,0.38,0.365c0.087,0.13,0.134,0.255,0.14,0.376
			c0.007,0.073-0.018,0.137-0.075,0.19c-0.057,0.053-0.122,0.08-0.195,0.08h-0.33c-0.04,0-0.088-0.008-0.145-0.025
			c-0.057-0.017-0.109-0.055-0.155-0.115c-0.087-0.113-0.216-0.209-0.386-0.285c-0.17-0.077-0.405-0.115-0.706-0.115
			c-0.307,0-0.556,0.057-0.746,0.17c-0.19,0.114-0.285,0.271-0.285,0.471c0,0.127,0.026,0.229,0.08,0.306
			c0.053,0.077,0.14,0.143,0.26,0.2c0.12,0.057,0.279,0.109,0.475,0.155c0.197,0.047,0.442,0.103,0.736,0.17
			c0.307,0.067,0.564,0.152,0.771,0.255c0.207,0.103,0.374,0.22,0.501,0.35c0.127,0.13,0.217,0.274,0.271,0.431
			c0.053,0.157,0.08,0.322,0.08,0.495c0,0.2-0.048,0.394-0.145,0.581c-0.097,0.187-0.235,0.351-0.416,0.491
			c-0.18,0.14-0.399,0.254-0.656,0.34c-0.257,0.087-0.549,0.13-0.876,0.13c-0.327,0-0.618-0.04-0.871-0.12
			c-0.254-0.08-0.471-0.178-0.651-0.295c-0.18-0.117-0.319-0.244-0.416-0.38c-0.097-0.137-0.149-0.265-0.155-0.385
			c-0.007-0.073,0.017-0.137,0.07-0.19c0.053-0.053,0.12-0.08,0.2-0.08h0.361c0.04,0,0.086,0.005,0.14,0.015
			c0.053,0.01,0.103,0.048,0.15,0.115c0.107,0.147,0.254,0.26,0.441,0.34c0.187,0.08,0.43,0.12,0.731,0.12
			c0.147,0,0.292-0.016,0.435-0.05c0.143-0.033,0.27-0.08,0.381-0.14c0.11-0.06,0.198-0.132,0.265-0.215
			S100.563,176.531,100.563,176.431z"/>
		<path fill="#B1BFB7" d="M103.676,171.605c0,0.074-0.026,0.137-0.08,0.19c-0.054,0.054-0.117,0.08-0.19,0.08h-0.571
			c-0.073,0-0.137-0.026-0.19-0.08c-0.053-0.053-0.08-0.117-0.08-0.19v-0.57c0-0.074,0.027-0.137,0.08-0.19
			c0.053-0.053,0.117-0.08,0.19-0.08h0.571c0.073,0,0.136,0.027,0.19,0.08c0.053,0.053,0.08,0.117,0.08,0.19V171.605z
			 M103.576,177.602c0,0.074-0.027,0.137-0.08,0.19c-0.053,0.054-0.117,0.08-0.19,0.08h-0.37c-0.074,0-0.137-0.026-0.19-0.08
			c-0.054-0.053-0.08-0.117-0.08-0.19v-4.665c0-0.073,0.026-0.137,0.08-0.19c0.053-0.053,0.117-0.08,0.19-0.08h0.37
			c0.073,0,0.137,0.027,0.19,0.08c0.053,0.053,0.08,0.117,0.08,0.19V177.602z"/>
		<path fill="#B1BFB7" d="M105.749,175.62c0.026,0.267,0.085,0.494,0.175,0.681c0.09,0.187,0.2,0.34,0.33,0.46
			c0.13,0.12,0.275,0.209,0.436,0.265c0.16,0.057,0.323,0.085,0.49,0.085c0.321,0,0.594-0.06,0.821-0.18s0.404-0.321,0.531-0.601
			c0.046-0.107,0.095-0.178,0.145-0.215s0.112-0.055,0.185-0.055h0.3c0.073,0,0.139,0.026,0.195,0.08
			c0.057,0.054,0.082,0.117,0.075,0.19c-0.007,0.161-0.059,0.336-0.155,0.526c-0.097,0.19-0.24,0.367-0.431,0.53
			c-0.19,0.164-0.424,0.302-0.701,0.416c-0.277,0.113-0.599,0.17-0.966,0.17c-0.367,0-0.693-0.06-0.976-0.18
			c-0.284-0.12-0.524-0.284-0.721-0.49c-0.197-0.207-0.351-0.451-0.461-0.731c-0.11-0.28-0.172-0.581-0.185-0.901
			c-0.007-0.107-0.011-0.238-0.015-0.395c-0.004-0.157,0.001-0.292,0.015-0.406c0.027-0.32,0.095-0.621,0.205-0.901
			c0.11-0.28,0.262-0.524,0.455-0.731c0.194-0.207,0.431-0.37,0.711-0.49s0.604-0.18,0.971-0.18c0.367,0,0.689,0.057,0.966,0.17
			c0.277,0.113,0.51,0.252,0.701,0.415c0.19,0.164,0.334,0.341,0.431,0.531c0.097,0.19,0.148,0.365,0.155,0.526
			c0.007,0.074-0.019,0.137-0.075,0.19c-0.057,0.053-0.122,0.08-0.195,0.08h-0.3c-0.074,0-0.135-0.018-0.185-0.055
			c-0.05-0.037-0.099-0.109-0.145-0.216c-0.127-0.28-0.304-0.48-0.531-0.6c-0.227-0.12-0.5-0.18-0.821-0.18
			c-0.167,0-0.332,0.029-0.495,0.085c-0.164,0.057-0.31,0.145-0.441,0.265c-0.13,0.12-0.24,0.274-0.33,0.461
			c-0.09,0.187-0.145,0.414-0.165,0.681C105.729,175.166,105.729,175.4,105.749,175.62z"/>
		<path fill="#B1BFB7" d="M118.624,173.577c0.007,0.3,0.01,0.564,0.01,0.791c0,0.227-0.004,0.491-0.01,0.791
			c-0.007,0.42-0.08,0.799-0.22,1.136c-0.14,0.337-0.334,0.622-0.581,0.856c-0.247,0.233-0.541,0.412-0.881,0.535
			c-0.341,0.124-0.718,0.185-1.132,0.185h-2.353c-0.073,0-0.137-0.026-0.19-0.08c-0.053-0.053-0.08-0.117-0.08-0.19v-6.468
			c0-0.073,0.026-0.136,0.08-0.19c0.053-0.053,0.117-0.08,0.19-0.08h2.293c0.414,0,0.796,0.062,1.146,0.185
			c0.35,0.124,0.652,0.302,0.906,0.536c0.254,0.234,0.452,0.519,0.596,0.856C118.542,172.778,118.617,173.157,118.624,173.577z
			 M117.673,173.627c-0.007-0.24-0.045-0.472-0.115-0.696c-0.07-0.224-0.182-0.422-0.335-0.596
			c-0.154-0.173-0.354-0.312-0.601-0.415c-0.247-0.103-0.551-0.155-0.911-0.155h-1.572v5.206h1.622c0.36,0,0.662-0.052,0.906-0.155
			c0.244-0.103,0.439-0.242,0.585-0.416c0.147-0.174,0.252-0.372,0.316-0.596c0.063-0.224,0.098-0.455,0.105-0.696
			c0-0.147,0.001-0.279,0.005-0.396c0.003-0.117,0.005-0.23,0.005-0.34c0-0.11-0.002-0.224-0.005-0.341
			C117.674,173.916,117.673,173.781,117.673,173.627z"/>
		<path fill="#B1BFB7" d="M119.725,174.768c0.027-0.307,0.1-0.594,0.22-0.861c0.12-0.267,0.277-0.501,0.471-0.701
			c0.194-0.2,0.426-0.357,0.696-0.471c0.271-0.114,0.572-0.17,0.906-0.17c0.361,0,0.682,0.058,0.966,0.175
			c0.284,0.117,0.526,0.285,0.726,0.506c0.2,0.22,0.354,0.487,0.46,0.801c0.107,0.314,0.16,0.664,0.16,1.051v0.27
			c0,0.073-0.026,0.137-0.08,0.19c-0.054,0.053-0.117,0.08-0.19,0.08h-3.444v0.06c0.013,0.454,0.152,0.803,0.416,1.046
			c0.264,0.244,0.592,0.365,0.986,0.365c0.367,0,0.642-0.051,0.826-0.155c0.183-0.103,0.332-0.218,0.445-0.345
			c0.053-0.053,0.1-0.09,0.14-0.11c0.04-0.02,0.1-0.03,0.18-0.03h0.3c0.073,0,0.14,0.027,0.2,0.08c0.06,0.053,0.083,0.117,0.07,0.19
			c-0.02,0.12-0.077,0.252-0.17,0.396c-0.094,0.143-0.229,0.277-0.405,0.4c-0.177,0.123-0.397,0.227-0.661,0.31
			c-0.264,0.083-0.572,0.125-0.926,0.125c-0.334,0-0.634-0.059-0.901-0.175c-0.267-0.117-0.499-0.277-0.696-0.481
			c-0.197-0.204-0.355-0.444-0.475-0.721c-0.12-0.277-0.194-0.579-0.22-0.906C119.691,175.383,119.691,175.076,119.725,174.768z
			 M120.616,174.799h2.813v-0.03c0-0.407-0.128-0.732-0.385-0.976c-0.257-0.244-0.599-0.365-1.026-0.365
			c-0.194,0-0.374,0.032-0.541,0.095c-0.167,0.064-0.314,0.154-0.44,0.27c-0.127,0.117-0.227,0.259-0.3,0.426
			c-0.074,0.167-0.114,0.35-0.12,0.55V174.799z"/>
		<path fill="#B1BFB7" d="M127.224,177.872c-0.087,0-0.154-0.026-0.2-0.08c-0.046-0.053-0.084-0.11-0.11-0.17l-1.993-4.646
			c-0.007-0.02-0.01-0.043-0.01-0.07c0-0.066,0.023-0.123,0.07-0.17c0.046-0.047,0.103-0.07,0.17-0.07h0.37
			c0.1,0,0.175,0.027,0.225,0.08c0.05,0.053,0.085,0.107,0.105,0.16l1.552,3.634l1.552-3.634c0.02-0.053,0.053-0.107,0.1-0.16
			c0.047-0.053,0.11-0.08,0.19-0.08h0.411c0.066,0,0.123,0.024,0.17,0.07c0.046,0.046,0.07,0.103,0.07,0.17
			c0,0.027-0.004,0.05-0.01,0.07l-1.992,4.646c-0.027,0.06-0.062,0.117-0.106,0.17c-0.043,0.054-0.108,0.08-0.195,0.08H127.224z"/>
		<path fill="#B1BFB7" d="M130.518,174.768c0.027-0.307,0.1-0.594,0.22-0.861c0.12-0.267,0.277-0.501,0.471-0.701
			c0.193-0.2,0.426-0.357,0.696-0.471c0.27-0.114,0.572-0.17,0.906-0.17c0.361,0,0.682,0.058,0.966,0.175
			c0.284,0.117,0.526,0.285,0.726,0.506c0.2,0.22,0.354,0.487,0.46,0.801c0.107,0.314,0.16,0.664,0.16,1.051v0.27
			c0,0.073-0.026,0.137-0.08,0.19c-0.054,0.053-0.117,0.08-0.19,0.08h-3.444v0.06c0.013,0.454,0.152,0.803,0.416,1.046
			c0.264,0.244,0.592,0.365,0.986,0.365c0.367,0,0.642-0.051,0.826-0.155c0.183-0.103,0.332-0.218,0.445-0.345
			c0.053-0.053,0.1-0.09,0.14-0.11c0.04-0.02,0.1-0.03,0.18-0.03h0.3c0.073,0,0.14,0.027,0.2,0.08c0.06,0.053,0.083,0.117,0.07,0.19
			c-0.02,0.12-0.077,0.252-0.17,0.396c-0.094,0.143-0.229,0.277-0.405,0.4c-0.177,0.123-0.397,0.227-0.661,0.31
			c-0.264,0.083-0.572,0.125-0.926,0.125c-0.334,0-0.634-0.059-0.901-0.175c-0.267-0.117-0.499-0.277-0.696-0.481
			s-0.355-0.444-0.475-0.721s-0.194-0.579-0.22-0.906C130.484,175.383,130.484,175.076,130.518,174.768z M131.409,174.799h2.813
			v-0.03c0-0.407-0.128-0.732-0.385-0.976c-0.257-0.244-0.599-0.365-1.026-0.365c-0.194,0-0.374,0.032-0.541,0.095
			c-0.167,0.064-0.314,0.154-0.44,0.27c-0.127,0.117-0.227,0.259-0.3,0.426c-0.074,0.167-0.114,0.35-0.12,0.55V174.799z"/>
		<path fill="#B1BFB7" d="M137.246,177.602c0,0.074-0.027,0.137-0.08,0.19c-0.053,0.054-0.117,0.08-0.19,0.08h-0.37
			c-0.074,0-0.137-0.026-0.19-0.08c-0.054-0.053-0.08-0.117-0.08-0.19v-6.567c0-0.074,0.026-0.137,0.08-0.19
			c0.053-0.053,0.117-0.08,0.19-0.08h0.37c0.073,0,0.137,0.027,0.19,0.08c0.053,0.053,0.08,0.117,0.08,0.19V177.602z"/>
		<path fill="#B1BFB7" d="M140.88,172.566c0.361,0,0.681,0.055,0.961,0.165c0.28,0.11,0.521,0.262,0.721,0.455
			c0.2,0.194,0.358,0.429,0.475,0.706c0.117,0.277,0.189,0.579,0.215,0.906c0.007,0.06,0.01,0.132,0.01,0.215s0,0.17,0,0.26
			c0,0.09,0,0.177,0,0.26s-0.003,0.152-0.01,0.205c-0.033,0.334-0.107,0.638-0.22,0.911c-0.114,0.274-0.27,0.507-0.471,0.701
			c-0.2,0.194-0.441,0.345-0.721,0.455c-0.28,0.11-0.6,0.165-0.961,0.165s-0.681-0.055-0.961-0.165
			c-0.281-0.11-0.521-0.262-0.721-0.455c-0.2-0.194-0.359-0.427-0.475-0.701c-0.117-0.274-0.189-0.577-0.216-0.911
			c-0.007-0.053-0.011-0.121-0.015-0.205c-0.004-0.084-0.005-0.17-0.005-0.26c0-0.09,0.002-0.177,0.005-0.26
			c0.003-0.084,0.008-0.155,0.015-0.215c0.027-0.327,0.099-0.629,0.216-0.906c0.117-0.277,0.275-0.512,0.475-0.706
			c0.2-0.194,0.44-0.345,0.721-0.455C140.2,172.621,140.52,172.566,140.88,172.566z M142.342,175.69
			c0.013-0.113,0.02-0.252,0.02-0.415c0-0.164-0.007-0.306-0.02-0.426c-0.02-0.2-0.064-0.387-0.13-0.561
			c-0.066-0.174-0.16-0.324-0.28-0.451s-0.267-0.227-0.44-0.3c-0.174-0.074-0.377-0.11-0.611-0.11c-0.234,0-0.437,0.037-0.611,0.11
			c-0.174,0.073-0.321,0.174-0.441,0.3s-0.213,0.277-0.28,0.451c-0.067,0.174-0.11,0.361-0.13,0.561
			c-0.013,0.12-0.02,0.262-0.02,0.426c0,0.163,0.007,0.302,0.02,0.415c0.02,0.2,0.063,0.387,0.13,0.561
			c0.067,0.174,0.16,0.324,0.28,0.451c0.12,0.127,0.267,0.227,0.441,0.3c0.174,0.073,0.377,0.11,0.611,0.11
			c0.233,0,0.437-0.037,0.611-0.11c0.174-0.073,0.32-0.174,0.44-0.3c0.12-0.127,0.214-0.277,0.28-0.451
			C142.278,176.077,142.322,175.89,142.342,175.69z"/>
		<path fill="#B1BFB7" d="M146.987,177.973c-0.414,0-0.744-0.072-0.991-0.215c-0.247-0.143-0.434-0.299-0.561-0.465v2.213
			c0,0.073-0.027,0.137-0.08,0.19c-0.053,0.053-0.117,0.08-0.19,0.08h-0.37c-0.074,0-0.137-0.026-0.19-0.08
			c-0.054-0.053-0.08-0.117-0.08-0.19v-6.568c0-0.073,0.026-0.137,0.08-0.19c0.053-0.053,0.117-0.08,0.19-0.08h0.37
			c0.073,0,0.137,0.027,0.19,0.08c0.053,0.053,0.08,0.117,0.08,0.19v0.31c0.133-0.18,0.323-0.339,0.57-0.475
			c0.247-0.137,0.574-0.205,0.981-0.205c0.314,0,0.606,0.055,0.876,0.165c0.271,0.11,0.506,0.269,0.706,0.476
			c0.2,0.207,0.361,0.457,0.481,0.751c0.12,0.294,0.19,0.624,0.21,0.991c0.007,0.1,0.01,0.209,0.01,0.326
			c0,0.117-0.003,0.225-0.01,0.325c-0.02,0.367-0.09,0.698-0.21,0.991c-0.12,0.294-0.281,0.543-0.481,0.746
			c-0.2,0.204-0.435,0.361-0.706,0.471C147.593,177.918,147.301,177.973,146.987,177.973z M145.436,174.839
			c-0.007,0.1-0.01,0.232-0.01,0.396c0,0.164,0.003,0.295,0.01,0.396c0.02,0.474,0.162,0.84,0.425,1.096
			c0.264,0.257,0.606,0.385,1.026,0.385c0.44,0,0.787-0.14,1.041-0.42c0.254-0.28,0.394-0.661,0.42-1.141
			c0.007-0.187,0.007-0.374,0-0.561c-0.026-0.481-0.167-0.861-0.42-1.141c-0.254-0.28-0.601-0.42-1.041-0.42
			c-0.414,0-0.754,0.127-1.021,0.38C145.599,174.061,145.456,174.405,145.436,174.839z"/>
		<path fill="#B1BFB7" d="M151.423,173.247c0.06-0.08,0.13-0.162,0.21-0.245c0.08-0.084,0.172-0.157,0.275-0.22
			c0.103-0.063,0.225-0.115,0.365-0.155c0.14-0.04,0.303-0.06,0.49-0.06c0.407,0,0.744,0.075,1.011,0.225
			c0.267,0.15,0.477,0.365,0.631,0.646c0.087-0.12,0.178-0.233,0.275-0.341c0.097-0.107,0.21-0.2,0.341-0.28
			c0.13-0.08,0.277-0.142,0.44-0.185c0.163-0.043,0.355-0.065,0.576-0.065c0.674,0,1.165,0.202,1.472,0.606
			c0.307,0.404,0.46,0.956,0.46,1.657v2.773c0,0.074-0.026,0.137-0.08,0.19c-0.054,0.054-0.117,0.08-0.19,0.08h-0.371
			c-0.073,0-0.137-0.026-0.19-0.08c-0.054-0.053-0.08-0.117-0.08-0.19v-2.673c0-0.514-0.1-0.893-0.3-1.137
			c-0.2-0.244-0.494-0.365-0.881-0.365c-0.354,0-0.639,0.117-0.856,0.35c-0.217,0.234-0.326,0.594-0.326,1.082v2.743
			c0,0.074-0.027,0.137-0.08,0.19c-0.053,0.054-0.117,0.08-0.19,0.08h-0.37c-0.073,0-0.137-0.026-0.19-0.08
			c-0.053-0.053-0.08-0.117-0.08-0.19v-2.673c0-0.514-0.1-0.893-0.301-1.137c-0.2-0.244-0.494-0.365-0.881-0.365
			c-0.354,0-0.639,0.117-0.856,0.35c-0.217,0.234-0.325,0.594-0.325,1.082v2.743c0,0.074-0.027,0.137-0.08,0.19
			c-0.053,0.054-0.117,0.08-0.19,0.08h-0.37c-0.074,0-0.137-0.026-0.19-0.08c-0.054-0.053-0.08-0.117-0.08-0.19v-4.665
			c0-0.073,0.026-0.137,0.08-0.19c0.053-0.053,0.117-0.08,0.19-0.08h0.37c0.073,0,0.137,0.027,0.19,0.08
			c0.053,0.053,0.08,0.117,0.08,0.19V173.247z"/>
		<path fill="#B1BFB7" d="M159.182,174.768c0.027-0.307,0.1-0.594,0.22-0.861c0.12-0.267,0.277-0.501,0.471-0.701
			c0.194-0.2,0.426-0.357,0.696-0.471c0.271-0.114,0.572-0.17,0.906-0.17c0.361,0,0.682,0.058,0.966,0.175
			c0.284,0.117,0.526,0.285,0.726,0.506c0.2,0.22,0.354,0.487,0.46,0.801c0.107,0.314,0.16,0.664,0.16,1.051v0.27
			c0,0.073-0.026,0.137-0.08,0.19c-0.054,0.053-0.117,0.08-0.19,0.08h-3.444v0.06c0.013,0.454,0.152,0.803,0.416,1.046
			c0.264,0.244,0.592,0.365,0.986,0.365c0.367,0,0.642-0.051,0.826-0.155c0.183-0.103,0.332-0.218,0.445-0.345
			c0.053-0.053,0.1-0.09,0.14-0.11c0.04-0.02,0.1-0.03,0.18-0.03h0.3c0.073,0,0.14,0.027,0.2,0.08c0.06,0.053,0.083,0.117,0.07,0.19
			c-0.02,0.12-0.077,0.252-0.17,0.396c-0.094,0.143-0.229,0.277-0.405,0.4c-0.177,0.123-0.397,0.227-0.661,0.31
			c-0.264,0.083-0.572,0.125-0.926,0.125c-0.334,0-0.634-0.059-0.901-0.175c-0.267-0.117-0.499-0.277-0.696-0.481
			c-0.197-0.204-0.355-0.444-0.475-0.721s-0.194-0.579-0.22-0.906C159.148,175.383,159.148,175.076,159.182,174.768z
			 M160.073,174.799h2.813v-0.03c0-0.407-0.128-0.732-0.385-0.976c-0.257-0.244-0.599-0.365-1.026-0.365
			c-0.194,0-0.374,0.032-0.541,0.095c-0.167,0.064-0.314,0.154-0.44,0.27c-0.127,0.117-0.227,0.259-0.3,0.426
			c-0.074,0.167-0.114,0.35-0.12,0.55V174.799z"/>
		<path fill="#B1BFB7" d="M169.624,177.602c0,0.074-0.026,0.137-0.08,0.19c-0.054,0.054-0.117,0.08-0.19,0.08h-0.371
			c-0.073,0-0.137-0.026-0.19-0.08c-0.054-0.053-0.08-0.117-0.08-0.19v-2.643c0-0.514-0.123-0.897-0.37-1.151
			c-0.247-0.253-0.591-0.38-1.031-0.38c-0.42,0-0.759,0.127-1.016,0.38c-0.257,0.254-0.385,0.638-0.385,1.151v2.643
			c0,0.074-0.027,0.137-0.08,0.19c-0.053,0.054-0.117,0.08-0.19,0.08h-0.37c-0.074,0-0.137-0.026-0.19-0.08
			c-0.054-0.053-0.08-0.117-0.08-0.19v-4.665c0-0.073,0.026-0.137,0.08-0.19c0.053-0.053,0.117-0.08,0.19-0.08h0.37
			c0.073,0,0.137,0.027,0.19,0.08c0.053,0.053,0.08,0.117,0.08,0.19v0.31c0.127-0.167,0.315-0.322,0.565-0.466
			c0.251-0.143,0.579-0.215,0.986-0.215c0.314,0,0.604,0.052,0.871,0.155c0.267,0.103,0.496,0.25,0.686,0.44
			c0.19,0.19,0.339,0.425,0.446,0.706c0.107,0.28,0.16,0.594,0.16,0.941V177.602z"/>
		<path fill="#B1BFB7" d="M172.358,176.12c0,0.127,0.011,0.245,0.035,0.356c0.023,0.11,0.065,0.205,0.125,0.285
			c0.06,0.08,0.145,0.142,0.255,0.185c0.11,0.043,0.252,0.065,0.426,0.065h0.53c0.074,0,0.137,0.027,0.19,0.08
			c0.053,0.053,0.08,0.117,0.08,0.19v0.32c0,0.074-0.027,0.137-0.08,0.19c-0.053,0.054-0.117,0.08-0.19,0.08h-0.631
			c-0.581,0-1.001-0.15-1.261-0.451c-0.26-0.3-0.391-0.734-0.391-1.302v-2.593h-0.741c-0.073,0-0.137-0.026-0.19-0.08
			c-0.054-0.053-0.08-0.117-0.08-0.19v-0.32c0-0.073,0.026-0.137,0.08-0.19c0.053-0.053,0.117-0.08,0.19-0.08h0.741v-1.632
			c0-0.074,0.026-0.137,0.08-0.19c0.053-0.053,0.117-0.08,0.19-0.08h0.37c0.073,0,0.137,0.027,0.19,0.08
			c0.053,0.053,0.08,0.117,0.08,0.19v1.632h1.271c0.073,0,0.136,0.027,0.19,0.08c0.053,0.053,0.08,0.117,0.08,0.19v0.32
			c0,0.074-0.026,0.137-0.08,0.19c-0.054,0.054-0.117,0.08-0.19,0.08h-1.271V176.12z"/>
	</g>
</g>
</svg>
