<?xml version="1.0" encoding="utf-8"?>
<!-- Generator: Adobe Illustrator 22.1.0, SVG Export Plug-In . SVG Version: 6.00 Build 0)  -->
<svg version="1.1" id="Ebene_1" xmlns="http://www.w3.org/2000/svg" xmlns:xlink="http://www.w3.org/1999/xlink" x="0px" y="0px"
	 viewBox="0 0 204 191" enable-background="new 0 0 204 191" xml:space="preserve">
<g>
	<g>
		<path fill="#00A041" d="M102,30.269c0,0,15.5,38.75,7.75,54.25s-23.25,15.5-23.25,15.5l15.5,23.25l31-46.5L102,30.269z"/>
		<path fill="#00C853" d="M109.75,84.519c7.75-15.5-7.75-54.25-7.75-54.25l-31,46.5l15.5,23.25
			C86.5,100.019,102,100.019,109.75,84.519z"/>
		
			<ellipse transform="matrix(0.9924 -0.1234 0.1234 0.9924 -8.5763 11.7344)" fill="#F7F9F8" cx="90.417" cy="75.084" rx="9.579" ry="14.265"/>
		
			<ellipse transform="matrix(0.9748 -0.223 0.223 0.9748 -14.9475 22.279)" fill="#282727" cx="91.184" cy="77.331" rx="3.92" ry="5.383"/>
		<circle fill="#F7F9F8" cx="91.711" cy="78.626" r="1.142"/>
		
			<ellipse transform="matrix(0.0449 -0.999 0.999 0.0449 34.4387 184.4058)" fill="#F7F9F8" cx="113.661" cy="74.192" rx="14.265" ry="9.579"/>
		
			<ellipse transform="matrix(0.0553 -0.9985 0.9985 0.0553 30.0305 185.6145)" fill="#282727" cx="113.109" cy="76.937" rx="5.262" ry="3.985"/>
		<circle fill="#F7F9F8" cx="112.619" cy="78.261" r="1.095"/>
		<g>
			<path fill="#282727" d="M107.981,55.452c-0.241,0-0.483-0.09-0.672-0.271c-0.385-0.371-0.397-0.984-0.026-1.37
				c2.207-2.297,5.178-3.597,8.363-3.66c3.206-0.053,6.207,1.117,8.503,3.325c0.385,0.371,0.397,0.984,0.026,1.37
				c-0.371,0.385-0.984,0.398-1.37,0.026c-1.923-1.848-4.454-2.825-7.121-2.785c-2.668,0.053-5.156,1.143-7.005,3.067
				C108.489,55.352,108.235,55.452,107.981,55.452z"/>
		</g>
		<g>
			<path fill="#282727" d="M78.297,58.907c-0.168,0-0.339-0.044-0.495-0.136c-0.46-0.273-0.61-0.868-0.337-1.328
				c1.677-2.818,4.352-4.815,7.531-5.623c3.179-0.806,6.482-0.327,9.302,1.35c0.46,0.273,0.61,0.868,0.337,1.328
				c-0.275,0.459-0.868,0.61-1.328,0.337c-2.373-1.413-5.156-1.815-7.834-1.136c-2.677,0.679-4.93,2.361-6.342,4.736
				C78.95,58.737,78.627,58.907,78.297,58.907z"/>
		</g>
	</g>
	<g>
		<path fill="#282727" d="M46.11,156.268c0.235,0,0.438,0.086,0.61,0.257c0.172,0.172,0.257,0.375,0.257,0.61v3.407
			c0,0.236-0.085,0.439-0.257,0.61c-0.172,0.172-0.375,0.257-0.61,0.257H30.876c-0.235,0-0.439-0.085-0.61-0.257
			c-0.172-0.171-0.257-0.375-0.257-0.61v-20.761c0-0.235,0.085-0.438,0.257-0.61c0.171-0.171,0.375-0.257,0.61-0.257h14.977
			c0.235,0,0.438,0.086,0.61,0.257c0.171,0.172,0.257,0.375,0.257,0.61v3.407c0,0.236-0.086,0.439-0.257,0.61
			c-0.172,0.172-0.375,0.257-0.61,0.257h-9.898v3.471h9.191c0.235,0,0.438,0.086,0.61,0.257c0.171,0.171,0.257,0.375,0.257,0.61
			v3.407c0,0.236-0.086,0.439-0.257,0.61c-0.172,0.172-0.375,0.257-0.61,0.257h-9.191v3.599H46.11z"/>
		<path fill="#282727" d="M70.469,138.914c0.235,0,0.438,0.086,0.61,0.257c0.171,0.172,0.257,0.375,0.257,0.61v3.407
			c0,0.236-0.086,0.439-0.257,0.61c-0.172,0.172-0.375,0.257-0.61,0.257h-5.656v16.486c0,0.236-0.086,0.439-0.257,0.61
			c-0.172,0.172-0.376,0.257-0.611,0.257h-4.21c-0.235,0-0.439-0.085-0.61-0.257c-0.172-0.171-0.257-0.375-0.257-0.61v-16.486
			h-5.656c-0.236,0-0.439-0.085-0.61-0.257c-0.172-0.171-0.258-0.375-0.258-0.61v-3.407c0-0.235,0.086-0.438,0.258-0.61
			c0.171-0.171,0.374-0.257,0.61-0.257H70.469z"/>
		<path fill="#282727" d="M82.42,147.463c-0.021,0.278-0.038,0.664-0.049,1.157c-0.011,0.493-0.016,1.002-0.016,1.526
			c0,0.525,0.005,1.04,0.016,1.542c0.011,0.504,0.027,0.895,0.049,1.173c0.043,0.493,0.139,0.964,0.289,1.414
			c0.149,0.45,0.386,0.847,0.707,1.189c0.321,0.343,0.729,0.616,1.221,0.819c0.493,0.204,1.104,0.306,1.832,0.306
			s1.328-0.085,1.8-0.257c0.471-0.171,0.856-0.38,1.157-0.626c0.3-0.246,0.53-0.52,0.69-0.82c0.161-0.3,0.284-0.578,0.37-0.835
			c0.106-0.342,0.225-0.583,0.354-0.723c0.128-0.139,0.374-0.209,0.739-0.209h4.21c0.192,0,0.358,0.07,0.498,0.209
			c0.139,0.14,0.209,0.305,0.209,0.498c-0.021,1.093-0.29,2.121-0.804,3.085c-0.515,0.964-1.222,1.799-2.121,2.506
			s-1.955,1.27-3.165,1.688c-1.211,0.417-2.523,0.626-3.938,0.626c-1.542,0-2.919-0.23-4.129-0.691
			c-1.211-0.46-2.245-1.087-3.102-1.88c-0.857-0.792-1.516-1.719-1.977-2.78s-0.723-2.18-0.787-3.358
			c-0.043-0.878-0.064-1.821-0.064-2.828c0-1.007,0.021-1.971,0.064-2.893c0.043-1.178,0.3-2.297,0.771-3.358
			c0.471-1.061,1.13-1.987,1.976-2.78c0.847-0.792,1.881-1.419,3.102-1.88c1.222-0.46,2.604-0.691,4.146-0.691
			c1.414,0,2.727,0.209,3.938,0.627c1.21,0.417,2.266,0.98,3.165,1.687s1.606,1.542,2.121,2.507
			c0.514,0.964,0.782,1.992,0.804,3.085c0,0.193-0.07,0.359-0.209,0.498c-0.14,0.14-0.306,0.209-0.498,0.209h-4.21
			c-0.365,0-0.611-0.069-0.739-0.209c-0.129-0.139-0.247-0.38-0.354-0.723c-0.086-0.257-0.209-0.535-0.37-0.835
			c-0.16-0.3-0.391-0.573-0.69-0.819c-0.301-0.246-0.687-0.455-1.157-0.627c-0.472-0.171-1.071-0.257-1.8-0.257
			s-1.339,0.102-1.832,0.305c-0.492,0.204-0.899,0.477-1.221,0.819c-0.321,0.343-0.558,0.739-0.707,1.189
			C82.559,146.498,82.463,146.97,82.42,147.463z"/>
		<path fill="#282727" d="M113.854,138.914c1.479,0,2.828,0.22,4.049,0.659c1.222,0.439,2.276,1.055,3.166,1.848
			c0.889,0.793,1.585,1.741,2.089,2.844c0.503,1.104,0.787,2.309,0.852,3.615c0.021,0.45,0.032,0.863,0.032,1.237
			c0,0.375,0,0.734,0,1.077c0,0.343,0,0.696,0,1.061c0,0.365-0.012,0.761-0.032,1.189c-0.064,1.329-0.343,2.539-0.836,3.631
			c-0.493,1.093-1.173,2.036-2.04,2.828c-0.868,0.793-1.902,1.409-3.102,1.848c-1.2,0.439-2.539,0.659-4.018,0.659h-8.677
			c-0.236,0-0.439-0.085-0.61-0.257c-0.172-0.171-0.257-0.375-0.257-0.61v-20.761c0-0.235,0.085-0.438,0.257-0.61
			c0.171-0.171,0.374-0.257,0.61-0.257H113.854z M118.064,147.752c-0.129-2.463-1.586-3.696-4.371-3.696h-3.277v12.212h3.438
			c2.699,0,4.103-1.231,4.21-3.696c0.021-0.45,0.032-0.873,0.032-1.269s0-0.782,0-1.157c0-0.375,0-0.755,0-1.141
			S118.084,148.201,118.064,147.752z"/>
		<path fill="#282727" d="M146.772,156.268c0.235,0,0.438,0.086,0.61,0.257c0.171,0.172,0.257,0.375,0.257,0.61v3.407
			c0,0.236-0.086,0.439-0.257,0.61c-0.172,0.172-0.375,0.257-0.61,0.257h-15.233c-0.236,0-0.439-0.085-0.61-0.257
			c-0.172-0.171-0.257-0.375-0.257-0.61v-20.761c0-0.235,0.085-0.438,0.257-0.61c0.171-0.171,0.374-0.257,0.61-0.257h14.976
			c0.236,0,0.439,0.086,0.611,0.257c0.171,0.172,0.257,0.375,0.257,0.61v3.407c0,0.236-0.086,0.439-0.257,0.61
			c-0.172,0.172-0.375,0.257-0.611,0.257h-9.897v3.471h9.19c0.236,0,0.439,0.086,0.611,0.257c0.171,0.171,0.257,0.375,0.257,0.61
			v3.407c0,0.236-0.086,0.439-0.257,0.61c-0.172,0.172-0.375,0.257-0.611,0.257h-9.19v3.599H146.772z"/>
		<path fill="#282727" d="M161.393,161.41c-0.835,0-1.403-0.428-1.703-1.286l-6.556-20.085c-0.044-0.15-0.07-0.246-0.081-0.289
			s-0.016-0.085-0.016-0.129c0-0.193,0.069-0.358,0.209-0.498c0.139-0.139,0.306-0.209,0.498-0.209h4.049
			c0.429,0,0.734,0.092,0.916,0.273c0.182,0.182,0.295,0.359,0.338,0.53l4.467,14.14l4.467-14.14
			c0.043-0.171,0.155-0.348,0.338-0.53c0.182-0.182,0.487-0.273,0.916-0.273h4.049c0.193,0,0.358,0.07,0.498,0.209
			c0.14,0.14,0.209,0.305,0.209,0.498c0,0.043-0.005,0.086-0.016,0.129c-0.012,0.043-0.038,0.139-0.081,0.289l-6.556,20.085
			c-0.3,0.857-0.867,1.286-1.703,1.286H161.393z"/>
	</g>
</g>
</svg>
