<?xml version="1.0" encoding="utf-8"?>
<!-- Generator: Adobe Illustrator 22.1.0, SVG Export Plug-In . SVG Version: 6.00 Build 0)  -->
<svg version="1.1" id="Ebene_1" xmlns="http://www.w3.org/2000/svg" xmlns:xlink="http://www.w3.org/1999/xlink" x="0px" y="0px"
	 viewBox="0 0 204 82" enable-background="new 0 0 204 82" xml:space="preserve">
<g>
	<path fill="#F7F9F8" d="M46.11,47.063c0.235,0,0.438,0.086,0.61,0.257c0.172,0.172,0.257,0.375,0.257,0.61v3.407
		c0,0.236-0.085,0.439-0.257,0.61c-0.172,0.172-0.375,0.257-0.61,0.257H30.876c-0.235,0-0.439-0.085-0.61-0.257
		c-0.172-0.171-0.257-0.375-0.257-0.61V30.576c0-0.235,0.085-0.438,0.257-0.61c0.171-0.171,0.375-0.257,0.61-0.257h14.977
		c0.235,0,0.438,0.086,0.61,0.257c0.171,0.172,0.257,0.375,0.257,0.61v3.407c0,0.236-0.086,0.439-0.257,0.61
		c-0.172,0.172-0.375,0.257-0.61,0.257h-9.898v3.471h9.191c0.235,0,0.438,0.086,0.61,0.257c0.171,0.171,0.257,0.375,0.257,0.61
		v3.407c0,0.236-0.086,0.439-0.257,0.61c-0.172,0.172-0.375,0.257-0.61,0.257h-9.191v3.599H46.11z"/>
	<path fill="#F7F9F8" d="M70.469,29.709c0.235,0,0.438,0.086,0.61,0.257c0.171,0.172,0.257,0.375,0.257,0.61v3.407
		c0,0.236-0.086,0.439-0.257,0.61c-0.172,0.172-0.375,0.257-0.61,0.257h-5.656v16.486c0,0.236-0.086,0.439-0.257,0.61
		c-0.172,0.172-0.376,0.257-0.611,0.257h-4.21c-0.235,0-0.439-0.085-0.61-0.257c-0.172-0.171-0.257-0.375-0.257-0.61V34.851h-5.656
		c-0.236,0-0.439-0.085-0.61-0.257c-0.172-0.171-0.258-0.375-0.258-0.61v-3.407c0-0.235,0.086-0.438,0.258-0.61
		c0.171-0.171,0.374-0.257,0.61-0.257H70.469z"/>
	<path fill="#F7F9F8" d="M82.42,38.258c-0.021,0.278-0.038,0.664-0.049,1.157c-0.011,0.493-0.016,1.002-0.016,1.526
		c0,0.525,0.005,1.04,0.016,1.542c0.011,0.504,0.027,0.895,0.049,1.173c0.043,0.493,0.139,0.964,0.289,1.414
		c0.149,0.45,0.386,0.847,0.707,1.189c0.321,0.343,0.729,0.616,1.221,0.819c0.493,0.204,1.104,0.306,1.832,0.306
		s1.328-0.085,1.8-0.257c0.471-0.171,0.856-0.38,1.157-0.626c0.3-0.246,0.53-0.52,0.69-0.82c0.161-0.3,0.284-0.578,0.37-0.835
		c0.106-0.342,0.225-0.583,0.354-0.723c0.128-0.139,0.374-0.209,0.739-0.209h4.21c0.192,0,0.358,0.07,0.498,0.209
		c0.139,0.14,0.209,0.305,0.209,0.498c-0.021,1.093-0.29,2.121-0.804,3.085c-0.515,0.964-1.222,1.799-2.121,2.506
		s-1.955,1.27-3.165,1.688c-1.211,0.417-2.523,0.626-3.938,0.626c-1.542,0-2.919-0.23-4.129-0.691
		c-1.211-0.46-2.245-1.087-3.102-1.88c-0.857-0.792-1.516-1.719-1.977-2.78s-0.723-2.18-0.787-3.358
		c-0.043-0.878-0.064-1.821-0.064-2.828c0-1.007,0.021-1.971,0.064-2.893c0.043-1.178,0.3-2.297,0.771-3.358
		c0.471-1.061,1.13-1.987,1.976-2.78c0.847-0.792,1.881-1.419,3.102-1.88c1.222-0.46,2.604-0.691,4.146-0.691
		c1.414,0,2.727,0.209,3.938,0.627c1.21,0.417,2.266,0.98,3.165,1.687s1.606,1.542,2.121,2.507c0.514,0.964,0.782,1.992,0.804,3.085
		c0,0.193-0.07,0.359-0.209,0.498C96.148,37.931,95.982,38,95.79,38h-4.21c-0.365,0-0.611-0.069-0.739-0.209
		c-0.129-0.139-0.247-0.38-0.354-0.723c-0.086-0.257-0.209-0.535-0.37-0.835c-0.16-0.3-0.391-0.573-0.69-0.819
		c-0.301-0.246-0.687-0.455-1.157-0.627c-0.472-0.171-1.071-0.257-1.8-0.257s-1.339,0.102-1.832,0.305
		c-0.492,0.204-0.899,0.477-1.221,0.819c-0.321,0.343-0.558,0.739-0.707,1.189C82.559,37.293,82.463,37.765,82.42,38.258z"/>
	<path fill="#F7F9F8" d="M113.854,29.709c1.479,0,2.828,0.22,4.049,0.659c1.222,0.439,2.276,1.055,3.166,1.848
		c0.889,0.793,1.585,1.741,2.089,2.844c0.503,1.104,0.787,2.309,0.852,3.615c0.021,0.45,0.032,0.863,0.032,1.237
		c0,0.375,0,0.734,0,1.077c0,0.343,0,0.696,0,1.061c0,0.365-0.012,0.761-0.032,1.189c-0.064,1.329-0.343,2.539-0.836,3.631
		c-0.493,1.093-1.173,2.036-2.04,2.828c-0.868,0.793-1.902,1.409-3.102,1.848c-1.2,0.439-2.539,0.659-4.018,0.659h-8.677
		c-0.236,0-0.439-0.085-0.61-0.257c-0.172-0.171-0.257-0.375-0.257-0.61V30.576c0-0.235,0.085-0.438,0.257-0.61
		c0.171-0.171,0.374-0.257,0.61-0.257H113.854z M118.064,38.547c-0.129-2.463-1.586-3.696-4.371-3.696h-3.277v12.212h3.438
		c2.699,0,4.103-1.231,4.21-3.696c0.021-0.45,0.032-0.873,0.032-1.269s0-0.782,0-1.157c0-0.375,0-0.755,0-1.141
		S118.084,38.996,118.064,38.547z"/>
	<path fill="#F7F9F8" d="M146.772,47.063c0.235,0,0.438,0.086,0.61,0.257c0.171,0.172,0.257,0.375,0.257,0.61v3.407
		c0,0.236-0.086,0.439-0.257,0.61c-0.172,0.172-0.375,0.257-0.61,0.257h-15.233c-0.236,0-0.439-0.085-0.61-0.257
		c-0.172-0.171-0.257-0.375-0.257-0.61V30.576c0-0.235,0.085-0.438,0.257-0.61c0.171-0.171,0.374-0.257,0.61-0.257h14.976
		c0.236,0,0.439,0.086,0.611,0.257c0.171,0.172,0.257,0.375,0.257,0.61v3.407c0,0.236-0.086,0.439-0.257,0.61
		c-0.172,0.172-0.375,0.257-0.611,0.257h-9.897v3.471h9.19c0.236,0,0.439,0.086,0.611,0.257c0.171,0.171,0.257,0.375,0.257,0.61
		v3.407c0,0.236-0.086,0.439-0.257,0.61c-0.172,0.172-0.375,0.257-0.611,0.257h-9.19v3.599H146.772z"/>
	<path fill="#F7F9F8" d="M161.393,52.205c-0.835,0-1.403-0.428-1.703-1.286l-6.556-20.085c-0.044-0.15-0.07-0.246-0.081-0.289
		s-0.016-0.085-0.016-0.129c0-0.193,0.069-0.358,0.209-0.498c0.139-0.139,0.306-0.209,0.498-0.209h4.049
		c0.429,0,0.734,0.092,0.916,0.273c0.182,0.182,0.295,0.359,0.338,0.53l4.467,14.14l4.467-14.14c0.043-0.171,0.155-0.348,0.338-0.53
		c0.182-0.182,0.487-0.273,0.916-0.273h4.049c0.193,0,0.358,0.07,0.498,0.209c0.14,0.14,0.209,0.305,0.209,0.498
		c0,0.043-0.005,0.086-0.016,0.129c-0.012,0.043-0.038,0.139-0.081,0.289l-6.556,20.085c-0.3,0.857-0.867,1.286-1.703,1.286H161.393
		z"/>
</g>
</svg>
