<?xml version="1.0" encoding="utf-8"?>
<!-- Generator: Adobe Illustrator 21.1.0, SVG Export Plug-In . SVG Version: 6.00 Build 0)  -->
<svg version="1.1" id="Ebene_1" xmlns="http://www.w3.org/2000/svg" xmlns:xlink="http://www.w3.org/1999/xlink" x="0px" y="0px"
	 viewBox="0 0 64 64" enable-background="new 0 0 64 64" xml:space="preserve">
<polygon fill="#8600C8" points="44,24 48,16 32,8 16,16 20,24 12,40 20,56 28,40 32,48 36,40 44,56 52,40 "/>
<g opacity="0.2">
	<polygon points="48,16 32,24 40.571,30.857 	"/>
	<polygon points="16,16 23.429,30.857 32,24 	"/>
</g>
<polygon opacity="0.3" points="40.571,30.857 32,24 23.429,30.857 32,48 "/>
<g opacity="0.4">
	<polygon points="36,40 44,56 52,40 40.571,30.857 	"/>
	<polygon points="12,40 20,56 28,40 23.429,30.857 	"/>
</g>
<g opacity="0.1">
	<polygon points="52,40 44,24 40.571,30.857 	"/>
	<polygon points="20,24 12,40 23.429,30.857 	"/>
</g>
</svg>
