<svg id="Ebene_1" data-name="Ebene 1" xmlns="http://www.w3.org/2000/svg" viewBox="0 0 48 48"><title>ETCDEV</title><polygon points="24 48 8 24 24 0 40 24 24 48" style="fill:#00c853"/><polygon points="30.4 28.8 32 36 40 24 30.4 28.8" style="opacity:0.5"/><polygon points="8 24 16 36 17.6 28.8 8 24" style="opacity:0.2"/><polygon points="24 32 17.6 28.8 16 36 24 48 32 36 30.4 28.8 24 32" style="opacity:0.30000000000000004"/><polygon points="24 32 30.4 28.8 28 18 24 16 20 18 17.6 28.8 24 32" style="opacity:0.2"/><polygon points="28 18 30.4 28.8 40 24 28 18" style="opacity:0.4"/><polygon points="20 18 8 24 17.6 28.8 20 18" style="opacity:0.1"/><polygon points="24 16 28 18 24 0 20 18 24 16" style="opacity:0.1"/><polygon points="40 24 24 0 28 18 40 24" style="opacity:0.30000000000000004"/></svg>