<svg id="Ebene_1" data-name="Ebene 1" xmlns="http://www.w3.org/2000/svg" viewBox="0 0 64 64"><title>ETCDEV</title><polygon points="44.8 36.8 48 32 32 8 16 32 19.2 36.8 16 40 21.33 45.33 16 48 32 56 48 48 42.67 45.33 48 40 44.8 36.8" style="fill:#00c853"/><polygon points="40 44 42.67 45.33 48 40 44.8 36.8 40 44" style="opacity:0.2"/><polygon points="24 44 19.2 36.8 16 40 21.33 45.33 24 44" style="opacity:0.2"/><g style="opacity:0.30000000000000004"><polygon points="32 56 24 44 21.33 45.33 32 56"/><polygon points="40 44 32 56 42.67 45.33 40 44"/></g><g style="opacity:0.4"><polygon points="16 48 32 56 21.33 45.33 16 48"/><polygon points="42.67 45.33 32 56 48 48 42.67 45.33"/></g><polygon points="32 40 40 44 44.8 36.8 32 24 19.2 36.8 24 44 32 40" style="opacity:0.1"/><polygon points="32 40 32 40 24 44 32 56 40 44 32 40" style="opacity:0.2"/></svg>