<?xml version="1.0" encoding="utf-8"?>
<!-- Generator: Adobe Illustrator 22.1.0, SVG Export Plug-In . SVG Version: 6.00 Build 0)  -->
<svg version="1.1" id="Ebene_1" xmlns="http://www.w3.org/2000/svg" xmlns:xlink="http://www.w3.org/1999/xlink" x="0px" y="0px"
	 viewBox="0 0 64 64" enable-background="new 0 0 64 64" xml:space="preserve">
<path fill="#00C853" d="M32,8C18.745,8,8,18.745,8,32s10.745,24,24,24s24-10.745,24-24S45.255,8,32,8z M32,40c-4.418,0-8-3.582-8-8
	s3.582-8,8-8s8,3.582,8,8S36.418,40,32,40z"/>
<path opacity="0.15" d="M32,8c-11.046,0-20,8.954-20,20c0,11.046,8.954,20,20,20s20-8.954,20-20C52,16.954,43.046,8,32,8z M32,40
	c-4.418,0-8-3.582-8-8s3.582-8,8-8s8,3.582,8,8S36.418,40,32,40z"/>
<path opacity="0.15" d="M32,8c-8.837,0-16,7.163-16,16s7.163,16,16,16c-4.418,0-8-3.582-8-8s3.582-8,8-8s8,3.582,8,8s-3.582,8-8,8
	c8.837,0,16-7.163,16-16S40.837,8,32,8z"/>
<path opacity="0.15" d="M32,16c-6.627,0-12,5.373-12,12c0,6.627,5.373,12,12,12c-4.418,0-8-3.582-8-8s3.582-8,8-8s8,3.582,8,8
	s-3.582,8-8,8c6.627,0,12-5.373,12-12C44,21.373,38.627,16,32,16z"/>
</svg>
