<svg id="Ebene_1" data-name="Ebene 1" xmlns="http://www.w3.org/2000/svg" viewBox="0 0 136 32"><title>ETCDEV</title><path d="M4.07,27.42a.8.8,0,0,1-.25-.58V5.2a.87.87,0,0,1,.23-.62.78.78,0,0,1,.6-.25H20.38a.85.85,0,0,1,.87.87V8.5a.78.78,0,0,1-.25.6.87.87,0,0,1-.62.23H9.85v4.23h9.8a.85.85,0,0,1,.87.87v3a.85.85,0,0,1-.87.87H9.85v4.33h10.8a.85.85,0,0,1,.87.87v3.3a.78.78,0,0,1-.25.6.87.87,0,0,1-.62.23h-16A.8.8,0,0,1,4.07,27.42Z" style="fill:#00c853"/><path d="M30.6,27.43a.78.78,0,0,1-.25-.6V9.77H24.48a.87.87,0,0,1-.62-.23.78.78,0,0,1-.25-.6V5.2a.85.85,0,0,1,.87-.87h18.1a.85.85,0,0,1,.87.87V8.93a.78.78,0,0,1-.25.6.87.87,0,0,1-.62.23H36.72V26.83a.78.78,0,0,1-.25.6.87.87,0,0,1-.62.23H31.22A.87.87,0,0,1,30.6,27.43Z" style="fill:#00c853"/><path d="M47.47,25.7A8.79,8.79,0,0,1,44.58,19q0-.9,0-2.93t0-3A8.78,8.78,0,0,1,47.5,6.35,11.09,11.09,0,0,1,55,4a13.87,13.87,0,0,1,5.32,1A8.59,8.59,0,0,1,64,7.77a7.4,7.4,0,0,1,1.43,4.33.65.65,0,0,1-.22.5.74.74,0,0,1-.52.2H60a1,1,0,0,1-.68-.18,1.53,1.53,0,0,1-.38-.68,4,4,0,0,0-1.42-2.28A4.38,4.38,0,0,0,55,9q-3.77,0-3.9,4.2,0,.9,0,2.77t0,2.83Q51.18,23,55,23a4.39,4.39,0,0,0,2.52-.67,3.81,3.81,0,0,0,1.42-2.27,1.26,1.26,0,0,1,.37-.68,1.12,1.12,0,0,1,.7-.18h4.73a.74.74,0,0,1,.52.2.65.65,0,0,1,.22.5A7.39,7.39,0,0,1,64,24.23,8.59,8.59,0,0,1,60.27,27,13.87,13.87,0,0,1,55,28,11.22,11.22,0,0,1,47.47,25.7Z" style="fill:#00c853"/><path d="M68.4,27.42a.8.8,0,0,1-.25-.58V5.2a.87.87,0,0,1,.23-.62.78.78,0,0,1,.6-.25h8.77q4.93,0,7.67,2.35a8.79,8.79,0,0,1,2.87,6.75q0,1,0,2.57t0,2.53q-.33,9.13-10.37,9.13H69A.8.8,0,0,1,68.4,27.42Zm9.35-4.75a4.23,4.23,0,0,0,3.1-1,4.59,4.59,0,0,0,1.07-3.2Q82,17.5,82,16t-.07-2.47a4.33,4.33,0,0,0-1.15-3.15,4.49,4.49,0,0,0-3.18-1H74.42V22.67Z" style="fill:#00c853"/><path d="M91,27.42a.8.8,0,0,1-.25-.58V5.2A.87.87,0,0,1,91,4.58a.78.78,0,0,1,.6-.25h15.73a.85.85,0,0,1,.87.87V8.5a.78.78,0,0,1-.25.6.87.87,0,0,1-.62.23H96.82v4.23h9.8a.85.85,0,0,1,.87.87v3a.85.85,0,0,1-.87.87h-9.8v4.33h10.8a.85.85,0,0,1,.87.87v3.3a.78.78,0,0,1-.25.6.87.87,0,0,1-.62.23h-16A.8.8,0,0,1,91,27.42Z" style="fill:#00c853"/><path d="M117.73,27.38a1.45,1.45,0,0,1-.48-.72L110.52,5.33l-.07-.3a.67.67,0,0,1,.22-.48.71.71,0,0,1,.52-.22h4.37a1.18,1.18,0,0,1,.82.28,1.36,1.36,0,0,1,.42.62l4.53,15.07,4.57-15.07a1.25,1.25,0,0,1,.42-.63,1.23,1.23,0,0,1,.82-.27h4.37a.65.65,0,0,1,.5.22.7.7,0,0,1,.2.48,1.25,1.25,0,0,1,0,.3l-6.77,21.33a1.26,1.26,0,0,1-.45.72,1.41,1.41,0,0,1-.92.28h-5.37A1.41,1.41,0,0,1,117.73,27.38Z" style="fill:#00c853"/></svg>