<svg id="Ebene_1" data-name="Ebene 1" xmlns="http://www.w3.org/2000/svg" viewBox="0 0 64 64"><title>ETCDEV</title><path d="M40,20,32,8,24,20H16V44h8l8,12,8-12h8V20ZM24.71,36.71l-1.41-1.41L26.59,32l-3.29-3.29,1.41-1.41L29.41,32ZM40,37H32V35h8Z" style="fill:#00c853"/><polygon points="16 32 16 44 24 44 16 32" style="opacity:0.4"/><polygon points="16 20 16 32 24 20 16 20" style="opacity:0.2"/><polygon points="48 44 48 32 40 44 48 44" style="opacity:0.4"/><polygon points="40 20 48 32 48 20 40 20" style="opacity:0.2"/></svg>