<?xml version="1.0" encoding="utf-8"?>
<!-- Generator: Adobe Illustrator 22.1.0, SVG Export Plug-In . SVG Version: 6.00 Build 0)  -->
<svg version="1.1" id="Ebene_1" xmlns="http://www.w3.org/2000/svg" xmlns:xlink="http://www.w3.org/1999/xlink" x="0px" y="0px"
	 viewBox="0 0 136 32" enable-background="new 0 0 136 32" xml:space="preserve">
<g>
	<path fill="#00C853" d="M4.067,27.417c-0.167-0.167-0.25-0.361-0.25-0.583V5.2c0-0.244,0.078-0.45,0.233-0.617
		c0.155-0.167,0.355-0.25,0.6-0.25h15.733c0.244,0,0.45,0.083,0.617,0.25c0.167,0.167,0.25,0.372,0.25,0.617v3.3
		c0,0.245-0.083,0.445-0.25,0.6c-0.167,0.156-0.372,0.233-0.617,0.233H9.85v4.233h9.8c0.244,0,0.45,0.083,0.617,0.25
		c0.167,0.167,0.25,0.372,0.25,0.617v3.033c0,0.245-0.083,0.45-0.25,0.617c-0.167,0.167-0.372,0.25-0.617,0.25h-9.8v4.333h10.8
		c0.244,0,0.45,0.083,0.617,0.25c0.167,0.167,0.25,0.372,0.25,0.617v3.3c0,0.245-0.083,0.445-0.25,0.6
		c-0.167,0.156-0.372,0.233-0.617,0.233h-16C4.428,27.667,4.234,27.583,4.067,27.417z"/>
	<path fill="#00C853" d="M30.6,27.433c-0.167-0.155-0.25-0.355-0.25-0.6V9.767h-5.867c-0.245,0-0.45-0.078-0.617-0.233
		c-0.167-0.155-0.25-0.355-0.25-0.6V5.2c0-0.244,0.083-0.45,0.25-0.617c0.167-0.167,0.372-0.25,0.617-0.25h18.1
		c0.244,0,0.45,0.083,0.617,0.25c0.167,0.167,0.25,0.372,0.25,0.617v3.733c0,0.245-0.083,0.445-0.25,0.6
		c-0.167,0.156-0.372,0.233-0.617,0.233h-5.867v17.067c0,0.245-0.083,0.445-0.25,0.6c-0.167,0.156-0.372,0.233-0.617,0.233h-4.633
		C30.972,27.667,30.767,27.589,30.6,27.433z"/>
	<path fill="#00C853" d="M47.467,25.7c-1.811-1.533-2.772-3.777-2.883-6.733c-0.022-0.6-0.033-1.578-0.033-2.933
		c0-1.378,0.011-2.378,0.033-3c0.111-2.888,1.083-5.117,2.917-6.683S51.817,4,54.95,4c1.978,0,3.75,0.322,5.317,0.967
		c1.567,0.645,2.805,1.578,3.717,2.8c0.911,1.222,1.389,2.667,1.433,4.333c0,0.2-0.072,0.367-0.217,0.5
		c-0.145,0.133-0.317,0.2-0.517,0.2H59.95c-0.311,0-0.539-0.061-0.683-0.183c-0.145-0.122-0.272-0.35-0.383-0.683
		c-0.311-1.089-0.783-1.85-1.417-2.283C56.833,9.217,55.994,9,54.95,9c-2.511,0-3.811,1.4-3.9,4.2
		c-0.022,0.6-0.033,1.522-0.033,2.767c0,1.245,0.011,2.189,0.033,2.833c0.089,2.8,1.388,4.2,3.9,4.2
		c1.022,0,1.861-0.222,2.517-0.667c0.655-0.444,1.128-1.2,1.417-2.267c0.089-0.333,0.211-0.561,0.367-0.683
		c0.155-0.122,0.389-0.183,0.7-0.183h4.733c0.2,0,0.372,0.067,0.517,0.2c0.144,0.133,0.217,0.3,0.217,0.5
		c-0.045,1.667-0.522,3.111-1.433,4.333c-0.911,1.222-2.15,2.156-3.717,2.8C58.7,27.678,56.928,28,54.95,28
		C51.772,28,49.278,27.233,47.467,25.7z"/>
	<path fill="#00C853" d="M68.4,27.417c-0.167-0.167-0.25-0.361-0.25-0.583V5.2c0-0.244,0.078-0.45,0.233-0.617
		c0.155-0.167,0.355-0.25,0.6-0.25h8.767c3.288,0,5.844,0.783,7.667,2.35c1.822,1.567,2.778,3.817,2.867,6.75
		c0.022,0.645,0.033,1.5,0.033,2.567s-0.011,1.911-0.033,2.533c-0.222,6.089-3.678,9.133-10.367,9.133h-8.933
		C68.761,27.667,68.567,27.583,68.4,27.417z M77.75,22.667c1.4,0,2.433-0.333,3.1-1c0.667-0.667,1.022-1.733,1.067-3.2
		c0.044-0.644,0.067-1.478,0.067-2.5c0-1.022-0.022-1.844-0.067-2.467c-0.045-1.422-0.428-2.472-1.15-3.15
		c-0.722-0.678-1.783-1.017-3.183-1.017h-3.167v13.333H77.75z"/>
	<path fill="#00C853" d="M91.033,27.417c-0.167-0.167-0.25-0.361-0.25-0.583V5.2c0-0.244,0.078-0.45,0.233-0.617
		c0.155-0.167,0.355-0.25,0.6-0.25h15.733c0.244,0,0.45,0.083,0.617,0.25c0.167,0.167,0.25,0.372,0.25,0.617v3.3
		c0,0.245-0.083,0.445-0.25,0.6c-0.167,0.156-0.372,0.233-0.617,0.233H96.816v4.233h9.8c0.244,0,0.45,0.083,0.617,0.25
		c0.167,0.167,0.25,0.372,0.25,0.617v3.033c0,0.245-0.083,0.45-0.25,0.617c-0.167,0.167-0.372,0.25-0.617,0.25h-9.8v4.333h10.8
		c0.244,0,0.45,0.083,0.617,0.25c0.167,0.167,0.25,0.372,0.25,0.617v3.3c0,0.245-0.083,0.445-0.25,0.6
		c-0.167,0.156-0.372,0.233-0.617,0.233h-16C91.394,27.667,91.2,27.583,91.033,27.417z"/>
	<path fill="#00C853" d="M117.733,27.383c-0.233-0.189-0.395-0.428-0.483-0.717l-6.733-21.333l-0.067-0.3
		c0-0.178,0.072-0.338,0.217-0.483c0.144-0.144,0.317-0.217,0.517-0.217h4.367c0.333,0,0.605,0.095,0.817,0.283
		c0.211,0.189,0.35,0.395,0.417,0.617l4.533,15.067l4.567-15.067c0.067-0.244,0.205-0.455,0.417-0.633
		c0.211-0.178,0.483-0.267,0.817-0.267h4.367c0.2,0,0.367,0.072,0.5,0.217c0.133,0.145,0.2,0.306,0.2,0.483
		c0,0.112-0.011,0.212-0.033,0.3l-6.767,21.333c-0.067,0.289-0.217,0.528-0.45,0.717c-0.233,0.189-0.539,0.283-0.917,0.283h-5.367
		C118.271,27.667,117.966,27.572,117.733,27.383z"/>
</g>
</svg>
