<?xml version="1.0" encoding="utf-8"?>
<!-- Generator: Adobe Illustrator 22.1.0, SVG Export Plug-In . SVG Version: 6.00 Build 0)  -->
<svg version="1.1" id="Ebene_1" xmlns="http://www.w3.org/2000/svg" xmlns:xlink="http://www.w3.org/1999/xlink" x="0px" y="0px"
	 viewBox="0 0 64 64" enable-background="new 0 0 64 64" xml:space="preserve">
<polygon fill="#00C853" points="48,32 32,56 16,32 32,8 "/>
<g>
	<path fill="#222222" d="M19.766,22.781c-0.087,0-0.175-0.022-0.255-0.07c-0.237-0.141-0.315-0.448-0.174-0.686
		c0.866-1.455,2.246-2.485,3.887-2.902c1.641-0.416,3.346-0.169,4.801,0.697c0.237,0.141,0.315,0.448,0.174,0.686
		c-0.142,0.236-0.446,0.315-0.686,0.174c-1.225-0.729-2.661-0.937-4.043-0.586c-1.382,0.351-2.544,1.219-3.273,2.444
		C20.103,22.693,19.937,22.781,19.766,22.781z"/>
</g>
<g>
	<path fill="#222222" d="M35.087,20.998c-0.125,0-0.25-0.046-0.347-0.14c-0.199-0.191-0.205-0.508-0.014-0.707
		c1.139-1.186,2.672-1.856,4.316-1.889c1.645-0.032,3.203,0.576,4.389,1.716c0.199,0.191,0.205,0.508,0.014,0.707
		c-0.191,0.199-0.508,0.206-0.707,0.014c-0.993-0.954-2.303-1.451-3.675-1.438c-1.377,0.027-2.661,0.59-3.616,1.583
		C35.349,20.946,35.218,20.998,35.087,20.998z"/>
</g>
<path opacity="0.2" d="M48,32L32,56l-8-12c0,0,8,0,12-8S32,8,32,8L48,32z"/>
<ellipse transform="matrix(0.9924 -0.1234 0.1234 0.9924 -3.6435 3.4499)" fill="#FFFFFF" cx="26.022" cy="31.131" rx="4.944" ry="7.362"/>
<ellipse transform="matrix(0.9748 -0.223 0.223 0.9748 -6.5349 6.7035)" fill="#222222" cx="26.418" cy="32.29" rx="2.023" ry="2.778"/>
<circle fill="#FFFFFF" cx="26.689" cy="32.958" r="0.589"/>
<ellipse transform="matrix(0.0449 -0.999 0.999 0.0449 5.6719 67.2727)" fill="#FFFFFF" cx="38.019" cy="30.67" rx="7.362" ry="4.944"/>
<ellipse transform="matrix(0.0553 -0.9985 0.9985 0.0553 3.608 67.9868)" fill="#222222" cx="37.734" cy="32.087" rx="2.716" ry="2.057"/>
<circle fill="#FFFFFF" cx="37.481" cy="32.77" r="0.565"/>
</svg>
