<svg id="Ebene_1" data-name="Ebene 1" xmlns="http://www.w3.org/2000/svg" width="40" height="68" viewBox="0 0 40 68"><title>ETCDEV</title><polygon points="4 36 20 44 36 36 20 28 4 36" style="fill:#00c853"/><polygon points="36 32 20 8 4 32 20 24 36 32" style="fill:#00c853"/><polygon points="4 40 20 64 36 40 20 48 4 40" style="fill:#00c853"/><polygon points="4 36 20 28 20 36 4 36" style="opacity:0"/><polygon points="4 32 20 8 20 24 4 32" style="opacity:0"/><polygon points="36 36 20 28 20 36 36 36" style="opacity:0.2"/><polygon points="36 32 20 8 20 24 36 32" style="opacity:0.2"/><polygon points="36 40 20 64 20 48 36 40" style="opacity:0.3"/><polygon points="4 40 20 64 20 48 4 40" style="opacity:0.2"/><polygon points="36 36 20 44 20 36 36 36" style="opacity:0.3"/><polygon points="4 36 20 44 20 36 4 36" style="opacity:0.2"/><ellipse cx="14.78" cy="15.12" rx="4.42" ry="6.58" transform="translate(-2.44 2.86) rotate(-10.2)" style="fill:#fff;stroke:#222;stroke-miterlimit:10;stroke-width:0.400000005960465px"/><ellipse cx="14.96" cy="16.11" rx="1.69" ry="2.55" transform="translate(-3.44 4.08) rotate(-13.93)" style="fill:#222"/><circle cx="14.97" cy="16.33" r="0.75" style="fill:#fff"/><path d="M15.55,6.76c.12,0,.27-.17.18-.28a1.74,1.74,0,0,0-.34-.26,5.58,5.58,0,0,0-.81-.47,3.59,3.59,0,0,0-1.43-.28,3.76,3.76,0,0,0-3.75,3c-.07.31.41.48.62.12a4,4,0,0,1,3.66-2.35,3.75,3.75,0,0,1,1,.14,2.73,2.73,0,0,1,.53.22A1.13,1.13,0,0,0,15.55,6.76Z" style="fill:#222"/><ellipse cx="25.58" cy="14.28" rx="6.58" ry="4.42" transform="translate(10.16 39.2) rotate(-87.43)" style="fill:#fff;stroke:#222;stroke-miterlimit:10;stroke-width:0.400000005960465px"/><path d="M30.4,8.82c.08.08.32,0,.32-.1a1.74,1.74,0,0,0-.09-.41,5.58,5.58,0,0,0-.31-.88,3.58,3.58,0,0,0-.91-1.14,3.76,3.76,0,0,0-4.81-.13c-.25.19,0,.63.39.49a4,4,0,0,1,4.31.59A3.75,3.75,0,0,1,30,8a2.73,2.73,0,0,1,.26.51A1.13,1.13,0,0,0,30.4,8.82Z" style="fill:#222"/><ellipse cx="24.61" cy="15.83" rx="2.55" ry="1.69" transform="matrix(0.27, -0.96, 0.96, 0.27, 2.64, 35.17)" style="fill:#222"/><circle cx="24.43" cy="16.21" r="0.75" transform="translate(-1.78 29.34) rotate(-60.17)" style="fill:#fff"/></svg>