<svg id="Ebene_1" data-name="Ebene 1" xmlns="http://www.w3.org/2000/svg" viewBox="0 0 64 64"><title>ETCDEV</title><polygon points="32 56 16 32 32 8 48 32 32 56" style="fill:#00c853"/><polygon points="38.4 36.8 40 44 48 32 38.4 36.8" style="opacity:0.5"/><polygon points="16 32 24 44 25.6 36.8 16 32" style="opacity:0.2"/><polygon points="32 40 25.6 36.8 24 44 32 56 40 44 38.4 36.8 32 40" style="opacity:0.30000000000000004"/><polygon points="32 40 38.4 36.8 36 26 32 24 28 26 25.6 36.8 32 40" style="opacity:0.2"/><polygon points="36 26 38.4 36.8 48 32 36 26" style="opacity:0.4"/><polygon points="28 26 16 32 25.6 36.8 28 26" style="opacity:0.1"/><polygon points="32 24 36 26 32 8 28 26 32 24" style="opacity:0.1"/><polygon points="48 32 32 8 36 26 48 32" style="opacity:0.30000000000000004"/></svg>