<svg id="Ebene_1" data-name="Ebene 1" xmlns="http://www.w3.org/2000/svg" viewBox="0 0 64 64"><title>ETCDEV</title><polygon points="44 24 48 16 32 8 16 16 20 24 12 40 20 56 28 40 32 48 36 40 44 56 52 40 44 24" style="fill:#8c00ff"/><g style="opacity:0.2"><polygon points="48 16 32 24 40.57 30.86 48 16"/><polygon points="16 16 23.43 30.86 32 24 16 16"/></g><polygon points="40.57 30.86 32 24 23.43 30.86 32 48 40.57 30.86" style="opacity:0.30000000000000004"/><g style="opacity:0.4"><polygon points="36 40 44 56 52 40 40.57 30.86 36 40"/><polygon points="12 40 20 56 28 40 23.43 30.86 12 40"/></g><g style="opacity:0.1"><polygon points="52 40 44 24 40.57 30.86 52 40"/><polygon points="20 24 12 40 23.43 30.86 20 24"/></g></svg>