<?xml version="1.0" encoding="utf-8"?>
<!-- Generator: Adobe Illustrator 22.1.0, SVG Export Plug-In . SVG Version: 6.00 Build 0)  -->
<svg version="1.1" id="Ebene_1" xmlns="http://www.w3.org/2000/svg" xmlns:xlink="http://www.w3.org/1999/xlink" x="0px" y="0px"
	 viewBox="0 0 64 64" enable-background="new 0 0 64 64" xml:space="preserve">
<polygon fill="none" stroke="#222222" stroke-miterlimit="10" points="48,32 32,56 16,32 32,8 "/>
<path fill="none" stroke="#222222" stroke-linecap="round" stroke-miterlimit="10" d="M27.769,20.249L27.769,20.249
	c-2.771-1.649-6.354-0.739-8.002,2.032l0,0"/>
<path fill="none" stroke="#222222" stroke-linecap="round" stroke-miterlimit="10" d="M43.085,20.338L43.085,20.338
	c-2.253-2.165-5.834-2.093-7.998,0.16l0,0"/>
<ellipse transform="matrix(0.9924 -0.1234 0.1234 0.9924 -3.6435 3.4499)" fill="none" stroke="#222222" stroke-miterlimit="10" cx="26.022" cy="31.131" rx="4.944" ry="7.362"/>
<ellipse transform="matrix(0.0449 -0.999 0.999 0.0449 5.6719 67.2727)" fill="none" stroke="#222222" stroke-miterlimit="10" cx="38.019" cy="30.67" rx="7.362" ry="4.944"/>
<ellipse transform="matrix(0.9748 -0.223 0.223 0.9748 -6.5349 6.7035)" fill="none" stroke="#222222" stroke-miterlimit="10" cx="26.418" cy="32.29" rx="2.023" ry="2.778"/>
<ellipse transform="matrix(0.0553 -0.9985 0.9985 0.0553 3.608 67.9868)" fill="none" stroke="#222222" stroke-miterlimit="10" cx="37.734" cy="32.087" rx="2.716" ry="2.057"/>
</svg>
