<?xml version="1.0" encoding="utf-8"?>
<!-- Generator: Adobe Illustrator 22.1.0, SVG Export Plug-In . SVG Version: 6.00 Build 0)  -->
<svg version="1.1" id="Ebene_1" xmlns="http://www.w3.org/2000/svg" xmlns:xlink="http://www.w3.org/1999/xlink" x="0px" y="0px"
	 viewBox="0 0 64 64" enable-background="new 0 0 64 64" xml:space="preserve">
<polygon fill="#00C853" points="44.8,36.8 48,32 32,8 16,32 19.2,36.8 16,40 21.333,45.333 16,48 32,56 48,48 42.667,45.333 48,40 
	"/>
<g>
	<polygon opacity="0.2" points="40,44 42.667,45.333 48,40 44.8,36.8 	"/>
	<polygon opacity="0.2" points="24,44 19.2,36.8 16,40 21.333,45.333 	"/>
</g>
<g opacity="0.3">
	<polygon points="32,56 24,44 21.333,45.333 	"/>
	<polygon points="40,44 32,56 42.667,45.333 	"/>
</g>
<g opacity="0.4">
	<polygon points="16,48 32,56 21.333,45.333 	"/>
	<polygon points="42.667,45.333 32,56 48,48 	"/>
</g>
<polygon opacity="0.1" points="32,40 40,44 44.8,36.8 32,24 19.2,36.8 24,44 "/>
<polygon opacity="0.2" points="32,40 32,40 24,44 32,56 40,44 "/>
</svg>
