<?xml version="1.0" encoding="utf-8"?>
<!-- Generator: Adobe Illustrator 22.1.0, SVG Export Plug-In . SVG Version: 6.00 Build 0)  -->
<svg version="1.1" id="Ebene_1" xmlns="http://www.w3.org/2000/svg" xmlns:xlink="http://www.w3.org/1999/xlink" x="0px" y="0px"
	 viewBox="0 0 64 64" enable-background="new 0 0 64 64" xml:space="preserve">
<path fill="#00A041" d="M32,8c0,0,8,20,4,28s-12,8-12,8l8,12l16-24L32,8z"/>
<path fill="#00C853" d="M36,36c4-8-4-28-4-28L16,32l8,12C24,44,32,44,36,36z"/>
<circle fill="#75032F" cx="32" cy="44" r="4"/>
<path fill="#FFFFFF" d="M32,45c-1.297,0-2.552,0.118-3.76,0.318C28.787,46.876,30.255,48,32,48s3.213-1.124,3.76-2.682
	C34.552,45.118,33.297,45,32,45z"/>
<g>
	<g>
		
			<ellipse transform="matrix(0.9924 -0.1234 0.1234 0.9924 -3.6435 3.4499)" fill="#FFFFFF" cx="26.022" cy="31.131" rx="4.944" ry="7.362"/>
		
			<ellipse transform="matrix(0.9748 -0.223 0.223 0.9748 -6.5349 6.7035)" fill="#222222" cx="26.418" cy="32.29" rx="2.023" ry="2.778"/>
		<circle fill="#FFFFFF" cx="26.689" cy="32.958" r="0.589"/>
	</g>
	<g>
		
			<ellipse transform="matrix(0.0449 -0.999 0.999 0.0449 5.6719 67.2727)" fill="#FFFFFF" cx="38.019" cy="30.67" rx="7.362" ry="4.944"/>
		
			<ellipse transform="matrix(0.0553 -0.9985 0.9985 0.0553 3.608 67.9868)" fill="#222222" cx="37.734" cy="32.087" rx="2.716" ry="2.057"/>
		<circle fill="#FFFFFF" cx="37.481" cy="32.77" r="0.565"/>
	</g>
</g>
<polygon fill="#222222" points="44,16 48,28 40,20 36,24 32,20 28,24 24,20 16,28 20,16 32,12 "/>
</svg>
