<?xml version="1.0" encoding="utf-8"?>
<!-- Generator: Adobe Illustrator 22.1.0, SVG Export Plug-In . SVG Version: 6.00 Build 0)  -->
<svg version="1.1" id="Ebene_1" xmlns="http://www.w3.org/2000/svg" xmlns:xlink="http://www.w3.org/1999/xlink" x="0px" y="0px"
	 viewBox="0 0 64 64" enable-background="new 0 0 64 64" xml:space="preserve">
<polygon fill="#00C853" points="32,8 8,20 8,44 8,52 16,56 24,52 32,56 40,52 48,56 56,52 56,44 56,20 "/>
<polygon opacity="0.1" fill="#222222" points="44,26 32,32 20,26 32,8 "/>
<polygon opacity="0.4" fill="#222222" points="24,52 16,56 16,48 "/>
<polygon opacity="0.3" fill="#222222" points="16,48 16,56 8,52 8,44 "/>
<polygon opacity="0.4" fill="#222222" points="56,44 56,52 48,56 48,48 "/>
<polygon opacity="0.3" fill="#222222" points="56,44 32,56 44,38 "/>
<polygon opacity="0.5" fill="#222222" points="48,48 48,56 40,52 "/>
<polygon opacity="0.3" fill="#222222" points="48,32 44,38 32,32 44,26 "/>
<polygon opacity="0.4" fill="#222222" points="44,38 32,56 32,32 "/>
<polygon opacity="0.2" fill="#222222" points="56,20 56,44 44,38 48,32 44,26 "/>
<polygon opacity="0.1" fill="#222222" points="16,32 20,38 8,44 8,20 20,26 "/>
<polygon opacity="0.2" fill="#222222" points="32,32 20,38 16,32 20,26 "/>
<polygon opacity="0.2" fill="#222222" points="32,56 8,44 20,38 "/>
<polygon opacity="0.3" fill="#222222" points="32,32 32,56 20,38 "/>
</svg>
