<?xml version="1.0" encoding="utf-8"?>
<!-- Generator: Adobe Illustrator 22.1.0, SVG Export Plug-In . SVG Version: 6.00 Build 0)  -->
<svg version="1.1" id="Ebene_1" xmlns="http://www.w3.org/2000/svg" xmlns:xlink="http://www.w3.org/1999/xlink" x="0px" y="0px"
	 viewBox="0 0 64 64" enable-background="new 0 0 64 64" xml:space="preserve">
<polygon fill="#00C853" points="40,20 32,8 24,20 8,8 8,40 24,56 32,56 40,56 56,40 56,8 "/>
<polygon opacity="0.2" points="48,32 32,24 16,32 32,8 "/>
<polygon opacity="0.3" points="48,32 40,56 32,56 "/>
<polygon opacity="0.3" points="32,56 24,56 16,32 "/>
<polygon opacity="0.1" points="24,56 8,40 8,8 "/>
<polygon opacity="0.4" points="24,20 16,32 8,8 "/>
<polygon opacity="0.4" fill="#222222" points="56,8 48,32 40,20 "/>
<polygon opacity="0.1" points="56,8 56,40 40,56 "/>
</svg>
