<?xml version="1.0" encoding="utf-8"?>
<!-- Generator: Adobe Illustrator 22.1.0, SVG Export Plug-In . SVG Version: 6.00 Build 0)  -->
<svg version="1.1" id="Ebene_1" xmlns="http://www.w3.org/2000/svg" xmlns:xlink="http://www.w3.org/1999/xlink" x="0px" y="0px"
	 viewBox="0 0 64 64" enable-background="new 0 0 64 64" xml:space="preserve">
<polygon fill="#00C853" points="32,56 16,32 32,8 48,32 "/>
<polygon opacity="0.5" points="38.4,36.8 40,44 48,32 "/>
<polygon opacity="0.2" points="16,32 24,44 25.6,36.8 "/>
<polygon opacity="0.3" points="32,40 25.6,36.8 24,44 32,56 40,44 38.4,36.8 "/>
<polygon opacity="0.2" points="32,40 38.4,36.8 36,26 32,24 28,26 25.6,36.8 "/>
<polygon opacity="0.4" points="36,26 38.4,36.8 48,32 "/>
<polygon opacity="0.1" points="28,26 16,32 25.6,36.8 "/>
<polygon opacity="0.1" points="32,24 36,26 32,8 28,26 "/>
<polygon opacity="0.3" points="48,32 32,8 36,26 "/>
</svg>
